<svg width="32" height="32" viewBox="0 0 32 32" fill="none" xmlns="http://www.w3.org/2000/svg">
<circle cx="16" cy="16" r="16" fill="#0D0B01"/>
<path d="M20.5284 15.0724C20.5375 14.3824 20.7252 13.706 21.074 13.1059C21.4229 12.5058 21.9215 12.0016 22.5236 11.6403C22.1411 11.107 21.6366 10.6681 21.05 10.3585C20.4634 10.0489 19.8109 9.8771 19.1444 9.85674C17.7227 9.71104 16.3443 10.6873 15.6198 10.6873C14.8813 10.6873 13.7658 9.87121 12.5646 9.89534C11.7877 9.91984 11.0304 10.1404 10.3668 10.5356C9.70308 10.9307 9.15556 11.487 8.77755 12.1502C7.14014 14.918 8.3615 18.9857 9.93004 21.223C10.7148 22.3185 11.632 23.5423 12.8321 23.4989C14.0065 23.4513 14.4451 22.7678 15.8626 22.7678C17.2671 22.7678 17.6786 23.4989 18.903 23.4713C20.1632 23.4513 20.9571 22.3709 21.7144 21.265C22.2783 20.4844 22.7122 19.6216 23 18.7087C22.2679 18.4064 21.6431 17.9004 21.2036 17.2537C20.7641 16.6071 20.5292 15.8484 20.5284 15.0724Z" fill="white"/>
<path d="M18.2155 8.38535C18.9026 7.58007 19.2411 6.54502 19.1592 5.5C18.1094 5.60764 17.1398 6.09745 16.4434 6.87183C16.1029 7.25013 15.8422 7.69025 15.676 8.167C15.5099 8.64376 15.4416 9.14782 15.4751 9.65035C16.0001 9.65563 16.5196 9.54452 16.9943 9.3254C17.4689 9.10628 17.8865 8.78486 18.2155 8.38535Z" fill="white"/>
</svg>
