<svg width="24" height="28" viewBox="0 0 24 28" fill="none" xmlns="http://www.w3.org/2000/svg">
<g clip-path="url(#clip0_505_67606)">
<path d="M10 5.74035C10 5.13138 10.2107 4.54735 10.5858 4.11674C10.9609 3.68613 11.4696 3.44421 12 3.44421C12.5304 3.44421 13.0391 3.68613 13.4142 4.11674C13.7893 4.54735 14 5.13138 14 5.74035C15.1484 6.36378 16.1274 7.33425 16.8321 8.54772C17.5367 9.7612 17.9404 11.1719 18 12.6288V16.073C18.0753 16.7867 18.2954 17.4702 18.6428 18.0685C18.9902 18.6667 19.4551 19.1629 20 19.5172H4C4.54494 19.1629 5.00981 18.6667 5.35719 18.0685C5.70457 17.4702 5.92474 16.7867 6 16.073V12.6288C6.05956 11.1719 6.4633 9.7612 7.16795 8.54772C7.8726 7.33425 8.85159 6.36378 10 5.74035" stroke="#212529" stroke-width="1.5" stroke-linecap="round" stroke-linejoin="round"/>
<path d="M9 19.5172V20.6653C9 21.5787 9.31607 22.4548 9.87868 23.1007C10.4413 23.7466 11.2044 24.1095 12 24.1095C12.7956 24.1095 13.5587 23.7466 14.1213 23.1007C14.6839 22.4548 15 21.5787 15 20.6653V19.5172" stroke="#212529" stroke-width="1.5" stroke-linecap="round" stroke-linejoin="round"/>
<path d="M18 3.04614C19.7009 3.04614 21.2498 4.66556 21.25 6.88794C21.25 9.11057 19.701 10.7307 18 10.7307C16.299 10.7307 14.75 9.11057 14.75 6.88794C14.7502 4.66556 16.2991 3.04614 18 3.04614Z" fill="#BA944C" stroke="white" stroke-width="1.5"/>
</g>
<defs>
<clipPath id="clip0_505_67606">
<rect width="24" height="27.5536" fill="white"/>
</clipPath>
</defs>
</svg>
