<svg width="32" height="32" viewBox="0 0 32 32" fill="none" xmlns="http://www.w3.org/2000/svg">
<path d="M29.0738 13.3887H27.9998V13.3334H15.9998V18.6667H23.5352C22.4358 21.7714 19.4818 24 15.9998 24C11.5818 24 7.99984 20.418 7.99984 16C7.99984 11.582 11.5818 8.00002 15.9998 8.00002C18.0392 8.00002 19.8945 8.76935 21.3072 10.026L25.0785 6.25469C22.6972 4.03535 19.5118 2.66669 15.9998 2.66669C8.6365 2.66669 2.6665 8.63669 2.6665 16C2.6665 23.3634 8.6365 29.3334 15.9998 29.3334C23.3632 29.3334 29.3332 23.3634 29.3332 16C29.3332 15.106 29.2412 14.2334 29.0738 13.3887Z" fill="#FFC107"/>
<path d="M4.2041 9.79402L8.58477 13.0067C9.7701 10.072 12.6408 8.00002 16.0001 8.00002C18.0394 8.00002 19.8948 8.76935 21.3074 10.026L25.0788 6.25469C22.6974 4.03535 19.5121 2.66669 16.0001 2.66669C10.8788 2.66669 6.43743 5.55802 4.2041 9.79402Z" fill="#FF3D00"/>
<path d="M15.9999 29.3333C19.4439 29.3333 22.5732 28.0153 24.9392 25.872L20.8125 22.38C19.4289 23.4322 17.7382 24.0013 15.9999 24C12.5319 24 9.58722 21.7886 8.47788 18.7026L4.12988 22.0526C6.33655 26.3706 10.8179 29.3333 15.9999 29.3333Z" fill="#4CAF50"/>
<path d="M29.074 13.3886H28V13.3333H16V18.6666H23.5353C23.0095 20.1443 22.0622 21.4354 20.8107 22.3806L20.8127 22.3793L24.9393 25.8713C24.6473 26.1366 29.3333 22.6666 29.3333 16C29.3333 15.106 29.2413 14.2333 29.074 13.3886Z" fill="#1976D2"/>
</svg>
