<svg width="36" height="36" viewBox="0 0 36 36" fill="none" xmlns="http://www.w3.org/2000/svg">
<rect width="36" height="36" rx="18" fill="#BA944C"/>
<path d="M23 27V25C23 23.9391 22.5786 22.9217 21.8284 22.1716C21.0783 21.4214 20.0609 21 19 21H11C9.93913 21 8.92172 21.4214 8.17157 22.1716C7.42143 22.9217 7 23.9391 7 25V27" stroke="white" stroke-width="1.5" stroke-linecap="round" stroke-linejoin="round"/>
<path d="M15 17C17.2091 17 19 15.2091 19 13C19 10.7909 17.2091 9 15 9C12.7909 9 11 10.7909 11 13C11 15.2091 12.7909 17 15 17Z" stroke="white" stroke-width="1.5" stroke-linecap="round" stroke-linejoin="round"/>
<path d="M29 26.9999V24.9999C28.9993 24.1136 28.7044 23.2527 28.1614 22.5522C27.6184 21.8517 26.8581 21.3515 26 21.1299" stroke="white" stroke-width="1.5" stroke-linecap="round" stroke-linejoin="round"/>
<path d="M22 9.13C22.8604 9.35031 23.623 9.85071 24.1676 10.5523C24.7122 11.2539 25.0078 12.1168 25.0078 13.005C25.0078 13.8932 24.7122 14.7561 24.1676 15.4577C23.623 16.1593 22.8604 16.6597 22 16.88" stroke="white" stroke-width="1.5" stroke-linecap="round" stroke-linejoin="round"/>
</svg>
