<svg width="24" height="25" viewBox="0 0 24 25" fill="none" xmlns="http://www.w3.org/2000/svg">
<path fill-rule="evenodd" clip-rule="evenodd" d="M12.5942 23.2579L12.5822 23.2599L12.5112 23.2949L12.4912 23.2989L12.4772 23.2949L12.4062 23.2589C12.3955 23.2563 12.3875 23.2583 12.3822 23.2649L12.3782 23.2749L12.3612 23.7029L12.3662 23.7229L12.3762 23.7359L12.4802 23.8099L12.4952 23.8139L12.5072 23.8099L12.6112 23.7359L12.6232 23.7199L12.6272 23.7029L12.6102 23.2759C12.6075 23.2653 12.6022 23.2593 12.5942 23.2579ZM12.8582 23.1449L12.8442 23.1469L12.6602 23.2399L12.6502 23.2499L12.6472 23.2609L12.6652 23.6909L12.6702 23.7029L12.6782 23.7109L12.8792 23.8029C12.8918 23.8063 12.9015 23.8036 12.9082 23.7949L12.9122 23.7809L12.8782 23.1669C12.8748 23.1543 12.8682 23.1469 12.8582 23.1449ZM12.1432 23.1469C12.1388 23.1443 12.1335 23.1434 12.1285 23.1445C12.1234 23.1456 12.119 23.1487 12.1162 23.1529L12.1102 23.1669L12.0762 23.7809C12.0768 23.7929 12.0825 23.8009 12.0932 23.8049L12.1082 23.8029L12.3092 23.7099L12.3192 23.7019L12.3222 23.6909L12.3402 23.2609L12.3372 23.2489L12.3272 23.2389L12.1432 23.1469Z" stroke="white" stroke-width="0.5"/>
<path fill-rule="evenodd" clip-rule="evenodd" d="M13.0991 2.99999C13.556 3 14.0004 3.14899 14.3649 3.42438C14.7294 3.69977 14.9942 4.08652 15.1191 4.52599L15.1571 4.68699L16.6081 11.942C16.6768 12.2859 16.8347 12.6058 17.0661 12.8694C17.2974 13.133 17.594 13.3312 17.9261 13.444L18.0841 13.49L19.7801 13.914C20.1306 14.0016 20.4377 14.2129 20.6449 14.5088C20.8522 14.8048 20.9456 15.1656 20.9081 15.525L20.8871 15.664L20.1931 19.133C20.1414 19.3913 20.0392 19.6369 19.8923 19.8557C19.7455 20.0744 19.5568 20.262 19.3373 20.4076C19.1177 20.5532 18.8715 20.654 18.6128 20.7042C18.3542 20.7543 18.0882 20.7529 17.8301 20.7L17.6841 20.664L14.6271 19.79C13.5777 19.4905 12.6551 18.8559 12.0001 17.983C11.3982 18.7853 10.569 19.3881 9.62009 19.713L9.37409 19.79L6.31709 20.664C6.06371 20.7363 5.79853 20.7579 5.53678 20.7274C5.27504 20.6969 5.0219 20.6151 4.79191 20.4864C4.56192 20.3578 4.35961 20.185 4.19661 19.978C4.03361 19.771 3.91313 19.5337 3.84209 19.28L3.80709 19.133L3.11309 15.663C3.04227 15.3087 3.10169 14.9408 3.28045 14.6268C3.45921 14.3128 3.74528 14.0739 4.08609 13.954L4.22009 13.914L5.91609 13.49C6.25627 13.4049 6.5681 13.2319 6.82032 12.9883C7.07254 12.7447 7.25627 12.439 7.35309 12.102L7.39209 11.942L8.84209 4.68699C8.90854 4.35529 9.05415 4.04455 9.26652 3.78122C9.47888 3.51789 9.75173 3.30976 10.0618 3.17455C10.3719 3.03933 10.7101 2.98104 11.0476 3.00462C11.385 3.0282 11.7118 3.13296 12.0001 3.30999C12.3201 3.11399 12.6961 2.99999 13.0991 2.99999ZM17.8061 15.482L17.1511 18.432L18.2321 18.741L18.8321 15.739L17.8061 15.482ZM6.19409 15.482L5.16809 15.739L5.76809 18.741L6.84909 18.431L6.19409 15.482ZM13.0991 4.99999C13.0729 5.00025 13.0479 5.01077 13.0294 5.02928C13.0109 5.04779 13.0004 5.07282 13.0001 5.09899V14.983C13 15.604 13.1926 16.2097 13.5514 16.7166C13.9101 17.2235 14.4174 17.6066 15.0031 17.813L15.2241 17.881L15.9581 14.58C15.2833 13.9985 14.8219 13.2084 14.6471 12.335L13.1971 5.07999C13.1925 5.0574 13.1802 5.0371 13.1623 5.02253C13.1445 5.00795 13.1221 4.99999 13.0991 4.99999ZM10.9011 4.99999C10.8782 5.00022 10.8561 5.00828 10.8384 5.02284C10.8208 5.0374 10.8087 5.05757 10.8041 5.07999L9.35309 12.335C9.17852 13.2083 8.7175 13.9984 8.04309 14.58L8.77609 17.881L8.82409 17.867C9.45087 17.6879 10.0023 17.3096 10.3949 16.7893C10.7875 16.2689 11 15.6348 11.0001 14.983V5.09899C10.9998 5.07264 10.9892 5.04746 10.9705 5.02893C10.9517 5.01039 10.9264 4.99999 10.9001 4.99999H10.9011Z" fill="#212529" stroke="white" stroke-width="0.5"/>
</svg>
