<svg width="41" height="42" viewBox="0 0 41 42" fill="none" xmlns="http://www.w3.org/2000/svg">
<path d="M5.61266 40.6238L0.75 35.7612V14.3654C4.64013 14.3654 7.55772 16.3105 7.55772 20.2006V26.0358M34.8509 40.6238L39.7135 35.7612V14.3654C35.8234 14.3654 32.9058 16.3105 32.9058 20.2006V26.0358M24.0908 6.58519V0.75H16.3105V6.58519H10.4753V14.3654H16.3105V20.2006H24.0908V14.3654H29.926V6.58519H24.0908Z" stroke="#212529" stroke-width="1.5"/>
<path d="M9.80607 34.4716L7.84155 32.5071C5.48413 30.1496 6.07349 27.2029 8.43091 24.8435L16.3142 32.7288V41.5963M30.6572 34.4716L32.6217 32.5071C34.9791 30.1496 34.3917 27.2029 32.0323 24.8435L24.149 32.7288V41.5963" stroke="#212529" stroke-width="1.5"/>
</svg>
