<svg width="56" height="35" viewBox="0 0 56 35" fill="none" xmlns="http://www.w3.org/2000/svg">
<path fill-rule="evenodd" clip-rule="evenodd" d="M12.984 18.2697C12.7959 15.9329 13.3819 13.3257 14.1518 11.4843C17.9025 2.51361 28.8959 -1.48362 37.8545 4.09708C46.063 9.21048 47.9279 20.8685 40.8525 28.4368C40.2675 29.0625 39.5098 29.7103 38.7393 30.3082C38.0121 30.8724 37.1238 31.3858 36.2188 31.8306C31.1518 34.3213 24.9132 33.9474 20.3711 30.8967C15.9403 27.9208 13.4365 23.8899 12.984 18.2696L12.984 18.2697ZM28.0628 0.0561538C24.2367 0.444064 21.4984 1.32678 18.4297 3.61272C13.8014 7.0606 11.0381 12.6636 11.4715 18.5504C12.0161 25.9468 16.4946 31.1883 22.5798 33.7409C26.0565 35.1993 30.1881 35.3582 33.9219 34.3494C35.0691 34.0394 36.1456 33.5815 37.0948 33.1038C40.9069 31.1854 43.9444 27.8336 45.5269 23.9643C47.3269 19.563 47.184 13.8714 44.8755 9.62155C42.7363 5.68368 39.9941 3.09505 35.6337 1.26507C33.6569 0.435477 30.5477 -0.195889 28.0628 0.0560775V0.0561538Z" fill="#212529"/>
<path fill-rule="evenodd" clip-rule="evenodd" d="M3.73342 8.62305L3.68524 8.71828C3.71473 8.82953 3.7434 8.81659 3.63392 8.78884C3.60946 8.80953 3.64425 8.81705 3.52865 8.87769C3.45736 8.91509 3.45492 8.92528 3.37253 8.9323C3.15882 8.95047 3.16211 8.8933 3.10545 8.8001C3.01009 8.81987 3.02704 8.84372 3.03355 8.75396C2.92209 8.77877 2.94554 8.79667 2.97782 8.68713L2.83977 8.59214L2.83346 0.390532C2.68009 0.226957 2.65064 0.158603 2.30952 0.225583L2.22202 0.257031L2.17972 0.328323L2.15425 0.429804C2.20669 1.82798 2.15619 5.08614 2.12074 6.70384L2.07735 8.61332C2.0748 8.62351 2.06141 8.6632 2.05932 8.65519C2.05715 8.64698 2.04543 8.68313 2.03877 8.69721C2.06563 8.79247 2.08413 8.77174 1.9847 8.76064C2.00386 8.84994 2.02193 8.8333 1.93207 8.81212C1.94213 8.91654 1.96214 8.89402 1.85792 8.86185C1.70582 8.94612 2.07151 8.88353 1.70006 8.93204C1.57312 8.9486 1.70729 8.95192 1.58186 8.93063C1.35759 8.89254 1.4293 8.83403 1.41467 8.81594C1.31606 8.83968 1.33267 8.86491 1.33955 8.77201C1.23119 8.79262 1.24721 8.81686 1.27608 8.71381L1.20778 8.60153C1.10282 8.32395 1.11652 1.26199 1.14353 0.386105C0.99403 -0.0325279 0.594749 0.213065 0.529808 0.572923C0.462352 0.946789 0.462584 1.40633 0.433597 1.80092C0.292067 3.7288 -0.04266 7.72102 0.00451679 9.30277C0.112338 12.9177 2.73764 12.1207 3.18374 14.1013C3.42063 15.1529 2.94519 20.1663 2.87441 21.5177C2.78922 23.144 2.71302 24.8956 2.54947 26.4645C2.38375 28.0545 2.33027 29.8071 2.22469 31.4314C2.17283 32.2293 2.05421 33.1955 2.33344 33.8678C2.90897 35.2533 4.98587 35.3684 5.77181 34.2063C6.24424 33.5078 6.17485 32.8355 6.12376 31.9011C6.03316 30.2434 5.89136 28.6416 5.8013 27.0041C5.61766 23.6647 5.37516 20.3865 5.13839 17.0571C5.01629 15.3402 4.76465 13.5906 6.02453 12.8562C7.27137 12.1295 8.06935 11.4885 8.2644 9.79751C8.4552 8.14366 7.97306 3.29509 7.81922 1.09773C7.78586 0.620973 7.82805 0.232987 7.38492 0.173297C6.99988 0.373091 7.1072 0.746689 7.10925 1.27497C7.11308 2.2449 7.14447 8.43769 7.07627 8.6374C6.94547 9.02077 6.33484 8.95524 6.23936 8.5047L6.20499 1.21597C6.20352 0.786801 6.2889 0.128682 5.7746 0.165282C5.31309 0.198104 5.42346 0.852368 5.42393 1.27497C5.42493 2.25845 5.42354 3.24196 5.42168 4.22548L5.40554 8.58481C5.30097 9.01203 4.64824 9.0018 4.56224 8.53386C4.49374 8.16122 4.54247 2.27715 4.54065 1.15689C4.53991 0.711844 4.62482 0.127575 4.10425 0.172342C3.63848 0.212339 3.75045 0.806456 3.75227 1.27501C3.75703 2.49465 3.8095 8.05336 3.73342 8.62321V8.62305Z" fill="#212529"/>
<path fill-rule="evenodd" clip-rule="evenodd" d="M52.2413 34.2029C52.3226 34.2725 52.2404 34.1863 52.3445 34.3008C52.3457 34.3022 52.4153 34.3875 52.4263 34.3995L53.1921 34.9099C54.1055 35.0026 54.5362 35.0049 55.084 34.4454C55.5564 33.9629 55.7071 33.452 55.678 32.55C55.627 30.9687 55.512 29.405 55.4162 27.8268C55.2284 24.7354 54.8999 21.5449 54.8314 18.4481C54.7588 15.158 54.8657 11.8289 54.8708 8.53292C54.8736 6.72122 54.9028 2.91917 54.7751 1.15457C54.6119 -1.10171 51.8897 0.168882 50.9086 7.80931C50.7253 9.23695 50.3463 16.2944 50.8455 17.3068C51.038 17.6971 51.8146 18.1706 52.1477 18.5021C52.6676 19.0195 52.7558 19.4223 52.7104 20.3924C52.6382 21.9385 52.4903 23.4844 52.3933 25.0544C52.3406 25.9067 51.8557 32.5619 51.9242 33.239C51.9656 33.6469 52.1303 33.9179 52.2412 34.2029L52.2413 34.2029Z" fill="#212529"/>
<path fill-rule="evenodd" clip-rule="evenodd" d="M30.0154 5.28743L30.0184 15.132C30.9949 15.5242 31.0618 15.7688 31.4481 16.5427C34.7618 16.5675 38.8536 16.5952 42.1226 16.543C42.1959 15.1021 41.4375 12.863 40.9238 11.8103C39.5621 9.01986 37.5561 7.19832 34.8753 5.85979C33.9235 5.38456 31.3359 4.53069 30.0186 4.64007L30.0154 5.28743H30.0154Z" fill="#212529"/>
<path fill-rule="evenodd" clip-rule="evenodd" d="M30.2305 17.7389C29.7697 19.1635 27.675 18.508 28.0823 17.1376C28.2258 16.6547 28.7839 16.1896 29.476 16.3839C29.961 16.5201 30.4361 17.1034 30.2305 17.7389ZM28.6938 15.5634C25.9902 16.3882 27.3365 20.0674 29.7924 19.255C30.5003 19.0208 30.8375 18.5469 31.0684 17.8529C33.1215 17.7982 35.8484 17.8433 38.0243 17.8464C38.4554 17.8471 38.5431 17.8344 38.7283 17.5618C38.7667 16.8355 37.9156 17.0469 37.2444 17.046C35.2268 17.0435 33.0267 17.0904 31.0595 17.0493C30.8831 16.0963 30.2379 15.8016 29.5474 15.5385C29.4514 13.8853 29.5431 10.8617 29.5381 8.94642C29.5366 8.3902 29.7518 7.12205 29.1073 7.13747C28.4936 7.15212 28.7025 8.347 28.7038 8.88742C28.7088 10.8533 28.7774 13.7924 28.6937 15.5634H28.6938Z" fill="#212529"/>
<path fill-rule="evenodd" clip-rule="evenodd" d="M23.6692 27.5935C23.802 27.314 23.66 27.0284 23.3601 27.024C23.0918 27.0199 22.9964 27.2674 22.8852 27.4778C22.598 28.0218 21.6938 29.2017 22.4692 29.2924C22.7905 29.3299 22.8698 29.0776 22.9847 28.8698C23.2138 28.4556 23.4695 28.0136 23.6691 27.5936L23.6692 27.5935Z" fill="#212529"/>
<path fill-rule="evenodd" clip-rule="evenodd" d="M40.6126 17.0797C40.3313 17.1771 39.975 17.8059 41.0126 17.8007C41.6142 17.7977 43.1862 18.0185 42.8064 17.269C42.7056 17.0701 42.5147 17.057 42.2149 17.0571C41.9373 17.0572 40.7742 17.0237 40.6126 17.0797V17.0797Z" fill="#212529"/>
<path fill-rule="evenodd" clip-rule="evenodd" d="M28.7792 30.898C28.8649 31.1768 29.5057 31.39 29.5093 30.488C29.5104 30.2096 29.543 29.0486 29.4777 28.8699C29.3544 28.533 28.7533 28.4298 28.7579 29.2423C28.7592 29.4866 28.7388 30.7669 28.7791 30.898H28.7792Z" fill="#212529"/>
<path fill-rule="evenodd" clip-rule="evenodd" d="M18.8203 22.9288C18.3963 23.152 18.0333 23.3618 17.6031 23.6249C17.3717 23.7664 17.1244 23.8294 17.1722 24.1679C17.2793 24.9254 18.4111 23.9787 18.9691 23.6736C19.1973 23.5488 19.4296 23.4916 19.4137 23.1712C19.3969 22.831 19.1151 22.7735 18.8203 22.9288Z" fill="#212529"/>
<path fill-rule="evenodd" clip-rule="evenodd" d="M17.3887 10.5437C16.7984 10.9501 17.6722 11.3074 17.9717 11.4883C18.2088 11.6315 18.9282 12.1879 19.2349 12.0198C19.4881 11.8809 19.459 11.5712 19.2538 11.4054C19.1104 11.2895 18.8221 11.1478 18.6588 11.0473C18.3893 10.8816 17.6979 10.3308 17.3887 10.5437V10.5437Z" fill="#212529"/>
<path fill-rule="evenodd" clip-rule="evenodd" d="M38.8586 23.0462L38.879 23.3876L38.92 23.4631C38.9737 23.4895 39.0436 23.5184 39.08 23.5362C39.099 23.5456 39.1237 23.6487 39.1611 23.5796C39.1676 23.5674 39.1883 23.5953 39.2018 23.6033L39.3005 23.6751L39.4116 23.7972C39.5252 23.7732 39.5031 23.7446 39.5031 23.8501C39.8656 23.9579 40.8497 24.8543 41.0323 24.2222C41.1564 23.7926 40.741 23.6843 40.5067 23.5536C40.2968 23.4365 39.9311 23.1834 39.7452 23.1374C39.6207 23.1554 39.6287 23.1944 39.6549 23.0886L39.5492 23.0209L39.4595 22.9327L39.3458 22.8696L39.0307 22.8672C39.0004 22.8943 38.9716 22.9247 38.9439 22.9534C38.9088 22.9897 38.8929 23.0279 38.887 23.0145C38.8828 23.0048 38.8681 23.0356 38.8586 23.0462Z" fill="#212529"/>
<path fill-rule="evenodd" clip-rule="evenodd" d="M23.0054 7.6624C23.0597 7.71175 23.1081 7.83006 23.258 7.87051C23.3977 7.90818 23.5121 7.85532 23.6112 7.83368C23.6982 7.629 23.7358 7.52607 23.6283 7.32952C23.6026 7.28254 23.6051 7.30384 23.5775 7.25594C23.5069 7.13377 23.5924 7.32059 23.5148 7.12874C23.4594 6.84845 23.1973 6.49012 23.0358 6.19709C22.8947 5.94119 22.6431 5.43634 22.2927 5.76559C21.9966 6.04378 22.3523 6.46638 22.4934 6.73647C22.6468 7.03012 22.7995 7.36433 23.0054 7.66236V7.6624Z" fill="#212529"/>
<path fill-rule="evenodd" clip-rule="evenodd" d="M34.5944 27.1612L34.5736 27.2568L34.5698 27.5202L34.6277 27.6399L34.693 27.7525L34.7548 27.8673L34.8199 27.9799L34.8814 28.0942L34.906 28.1915L35.1195 28.5231C35.1886 28.7982 35.4174 29.3832 35.8659 29.2684C36.3461 29.1455 35.9276 28.5476 35.8249 28.3108C35.7151 28.3108 35.7475 28.3317 35.7753 28.2139C35.6794 28.1881 35.7135 28.2731 35.7127 28.0982L35.6332 27.9986L35.5662 27.8881L35.5003 27.7762L35.4439 27.6549L35.3748 27.5448L35.3081 27.4346L35.2433 27.3218L35.1728 27.2188C35.0661 27.239 35.0921 27.2549 35.1217 27.1483C35.0186 27.1665 35.0352 27.1923 35.0488 27.0957L34.7413 27.0747L34.5944 27.1611L34.5944 27.1612Z" fill="#212529"/>
<path fill-rule="evenodd" clip-rule="evenodd" d="M15.4782 17.1112C15.4982 17.1992 15.5141 17.1796 15.423 17.1622C15.4459 17.2708 15.4784 17.2549 15.3823 17.252L15.3966 17.622C15.4976 17.6114 15.4626 17.5995 15.4309 17.7092C15.5358 17.6892 15.5188 17.6638 15.5024 17.7634L15.6076 17.7807L17.5955 17.7679C17.8497 17.7136 17.8635 17.6169 17.8552 17.293C17.7465 17.293 17.781 17.312 17.8145 17.1938C17.7142 17.2101 17.7368 17.2291 17.7556 17.1288C17.6563 17.1544 17.6781 17.1801 17.6643 17.0942L15.4782 17.1112Z" fill="#212529"/>
<path fill-rule="evenodd" clip-rule="evenodd" d="M28.8715 3.99229C28.6968 4.35577 28.7973 5.66273 28.7949 6.16464C28.9153 6.32368 28.9468 6.34326 29.2073 6.35646L29.3307 6.27345L29.3988 6.22647L29.4342 6.14346C29.5015 5.72418 29.457 5.19567 29.4555 4.75681C29.4538 4.22257 29.5803 3.8002 28.9412 3.94748L28.8714 3.99232L28.8715 3.99229Z" fill="#212529"/>
<path fill-rule="evenodd" clip-rule="evenodd" d="M34.5943 27.1612L34.5735 27.2568C34.5013 27.3387 34.4174 27.4283 34.5697 27.5203C34.5561 27.6941 34.5268 27.5983 34.6276 27.6399C34.6253 27.8069 34.5909 27.716 34.6929 27.7526C34.6766 27.9295 34.6528 27.8389 34.7546 27.8674C34.748 28.053 34.7251 27.9586 34.8198 27.98C34.8175 28.1595 34.7853 28.0723 34.8813 28.0942L34.8198 27.98L34.7546 27.8674L34.6929 27.7526L34.6276 27.6399L34.5697 27.5203L34.5735 27.2568L34.5943 27.1612L34.7412 27.0748L35.0487 27.0958C35.0352 27.1924 35.0186 27.1665 35.1216 27.1484C35.092 27.255 35.066 27.2392 35.1727 27.2189L35.2432 27.3219L35.308 27.4348L35.3747 27.5449L35.4438 27.655L35.5002 27.7763L35.5661 27.8882L35.6331 27.9987L35.7126 28.0983C35.7134 28.2732 35.6793 28.1882 35.7752 28.214C35.7474 28.3318 35.7151 28.3109 35.8249 28.3109L35.7752 28.214L35.7126 28.0983L35.6331 27.9987L35.5661 27.8882L35.5002 27.7763L35.4438 27.655L35.3747 27.5449C35.3772 27.3808 35.4106 27.4692 35.308 27.4348C35.3129 27.2652 35.3447 27.3511 35.2432 27.3219C35.2463 27.1457 35.278 27.2283 35.1727 27.2189C35.2006 27.1124 35.2272 27.1275 35.1216 27.1484C35.1561 27.0345 35.1681 27.0647 35.0487 27.0958C35.0216 27.0471 35.1359 27.026 34.9103 27.0048C34.6903 26.9842 34.7437 27.0728 34.7412 27.0748L34.5943 27.1612H34.5943Z" fill="#727172"/>
<path fill-rule="evenodd" clip-rule="evenodd" d="M38.8586 23.046C38.8494 23.0573 38.7714 23.0046 38.7903 23.2261C38.8119 23.4794 38.8479 23.3567 38.8789 23.3874C38.8421 23.4913 38.8143 23.4766 38.9199 23.4629C39.0208 23.5691 38.819 23.453 39.0108 23.5524C39.1215 23.6099 39.0456 23.5778 39.2017 23.6031C39.2116 23.7179 39.1393 23.6774 39.3004 23.6749L39.4115 23.797C39.3933 23.8983 39.3817 23.8614 39.503 23.8499C39.503 23.7444 39.5251 23.773 39.4115 23.797L39.3004 23.6749L39.2017 23.6031C39.1881 23.5952 39.1675 23.5672 39.1609 23.5794C39.1236 23.6485 39.0989 23.5454 39.0799 23.536C39.0435 23.5182 38.9736 23.4893 38.9199 23.4629L38.8789 23.3874L38.8585 23.046C38.868 23.0354 38.8827 23.0047 38.8869 23.0143C38.8927 23.0277 38.9087 22.9894 38.9438 22.9532C38.9715 22.9246 39.0003 22.8941 39.0306 22.867L39.3457 22.8694L39.4594 22.9325L39.5491 23.0207L39.6548 23.0884C39.6286 23.1942 39.6206 23.1553 39.7451 23.1372C39.7451 23.0352 39.7658 23.0639 39.6548 23.0884C39.6491 22.9789 39.7298 23.0091 39.5491 23.0207L39.4594 22.9325L39.3457 22.8694C39.2122 22.7291 39.1458 22.795 39.0306 22.867C38.9081 22.9286 38.9355 22.8895 38.8585 23.046L38.8586 23.046Z" fill="#727172"/>
</svg>
