<svg width="200" height="200" viewBox="0 0 200 200" fill="none" xmlns="http://www.w3.org/2000/svg">
<path d="M100 12.5C123.206 12.5 145.462 21.7187 161.872 38.1282C178.281 54.5376 187.5 76.7936 187.5 100C187.5 123.206 178.281 145.462 161.872 161.872C145.462 178.281 123.206 187.5 100 187.5C76.7936 187.5 54.5376 178.281 38.1282 161.872C21.7187 145.462 12.5 123.206 12.5 100C12.5 76.7936 21.7187 54.5376 38.1282 38.1282C54.5376 21.7187 76.7936 12.5 100 12.5ZM89.1 117.262L69.6625 97.8125C68.9657 97.1157 68.1384 96.5629 67.228 96.1858C66.3175 95.8087 65.3417 95.6146 64.3563 95.6146C63.3708 95.6146 62.395 95.8087 61.4845 96.1858C60.5741 96.5629 59.7468 97.1157 59.05 97.8125C57.6427 99.2198 56.8521 101.129 56.8521 103.119C56.8521 105.109 57.6427 107.018 59.05 108.425L83.8 133.175C84.4948 133.875 85.3214 134.431 86.2322 134.811C87.1429 135.19 88.1197 135.385 89.1062 135.385C90.0928 135.385 91.0696 135.19 91.9803 134.811C92.8911 134.431 93.7177 133.875 94.4125 133.175L145.663 81.9125C146.369 81.2186 146.93 80.3917 147.315 79.4796C147.7 78.5674 147.901 77.5881 147.906 76.5981C147.91 75.608 147.719 74.6269 147.342 73.7112C146.966 72.7956 146.412 71.9635 145.712 71.263C145.012 70.5625 144.181 70.0075 143.266 69.63C142.351 69.2524 141.37 69.0598 140.38 69.0632C139.39 69.0667 138.41 69.2661 137.497 69.65C136.585 70.0339 135.757 70.5947 135.062 71.3L89.1 117.262Z" fill="#34C759"/>
</svg>
