<svg width="49" height="174" viewBox="0 0 49 174" fill="none" xmlns="http://www.w3.org/2000/svg">
<path d="M-51.4571 142.066C-56.0987 142.066 -60.539 141.526 -64.4567 140.43C-66.586 139.848 -68.6205 138.963 -70.4976 137.802C-72.1621 136.811 -73.9387 135.959 -75.6541 135.133C-77.1198 134.43 -78.6338 133.701 -80.0816 132.885C-83.6909 130.846 -87.42 130.023 -92.5892 130.015H-93.0047C-94.4907 130.015 -95.5765 130.015 -96.9836 130.673C-102.452 133.185 -108.179 135.092 -114.061 136.359C-125.922 138.949 -136.505 136.459 -143.858 129.347C-152.902 120.602 -156.04 111.138 -155.961 105.196C-155.943 103.904 -155.866 102.553 -155.785 101.118C-155.397 94.2995 -154.956 86.5712 -161.013 82.5719C-162.629 81.5065 -164.408 80.6653 -166.131 79.8522C-168.988 78.5064 -171.942 77.1121 -174.249 74.6422C-180.165 68.3132 -180.861 57.4063 -175.804 50.3305L-175.631 50.0883C-172.682 45.9616 -169.34 41.2818 -164.591 39.2146C-164.336 39.0999 -164.056 38.9903 -163.788 38.8781C-163.117 38.6178 -162.462 38.3156 -161.828 37.9733C-159.741 36.7829 -156.453 33.8695 -155.711 31.4862C-155.12 29.5924 -155.148 27.4436 -155.173 25.3688C-155.219 21.5709 -155.267 17.6456 -151.681 14.8417C-149.463 13.111 -146.8 12.0201 -144.223 10.9623C-140.578 9.46604 -137.137 8.05393 -134.738 4.98502C-133.581 3.50154 -132.865 1.702 -132.172 -0.0363705C-131.379 -2.02963 -130.556 -4.09172 -129.062 -5.75362C-124.451 -10.8872 -118.239 -14.5729 -112.022 -15.8678C-107.755 -16.7548 -102.438 -15.4243 -97.7992 -14.0045C-93.0557 -12.5542 -87.5474 -12.7097 -80.4665 -14.499L-80.39 -14.1957L-80.4665 -14.499C-77.7009 -15.1974 -74.9532 -16.0717 -72.3711 -16.9052C-63.8296 -19.6708 -53.3051 -19.709 -44.2182 -16.9791C-34.0224 -13.9331 -26.4317 -7.80296 -22.8072 0.307733C-22.5085 1.02922 -22.2706 1.7744 -22.096 2.5355C-21.9119 3.37651 -21.6331 4.19398 -21.2651 4.97228C-18.5199 10.2817 -13.0626 13.4959 -8.61472 15.7007C-0.794599 19.5776 4.29306 23.712 5.5089 32.3452C6.00437 35.5296 6.11136 38.7624 5.82751 41.9725C5.53439 45.3116 3.89288 48.5386 2.56744 50.6593C2.19529 51.2557 1.80276 51.8318 1.40513 52.39C0.691669 53.3584 0.0550357 54.3811 -0.498932 55.4487C-1.42419 57.3451 -2.6859 59.2874 -4.02409 61.347C-6.94516 65.8407 -9.96821 70.49 -9.86625 75.2514C-9.77958 79.1946 -7.99788 82.8701 -6.2748 86.4284C-5.33679 88.358 -4.37075 90.3563 -3.69018 92.3674C-3.32126 93.3528 -2.8631 94.3024 -2.32141 95.2044C-2.17102 95.4771 -2.01809 95.7524 -1.86771 96.0303C-0.0987492 99.3439 -0.266971 103.797 -0.664604 107.73C-1.07498 111.762 -2.42846 115.632 -4.488 118.609C-5.34444 119.855 -6.34871 121.045 -7.32241 122.198C-8.08708 123.09 -8.85177 124.012 -9.54763 124.945L-9.79487 125.282C-10.9674 126.86 -12.0889 128.341 -13.7253 129.574C-16.1111 131.346 -18.451 133.046 -20.8623 134.384C-21.5696 134.76 -22.2953 135.1 -23.0366 135.404C-23.6126 135.658 -24.2091 135.913 -24.7749 136.204C-27.696 137.703 -30.6043 138.613 -33.3291 139.416C-39.2159 141.153 -45.3195 142.045 -51.4571 142.066V142.066ZM-92.4439 129.391C-87.2441 129.391 -83.4462 130.275 -79.7732 132.342C-78.3432 133.148 -76.8368 133.872 -75.3814 134.57C-73.6532 135.401 -71.8664 136.263 -70.1765 137.267C-68.3465 138.4 -66.3625 139.263 -64.2859 139.829C-55.4717 142.296 -43.9607 141.921 -33.4948 138.832C-30.798 138.034 -27.9229 137.134 -25.0502 135.661C-24.4665 135.36 -23.8599 135.098 -23.266 134.845C-22.5599 134.537 -21.8284 134.221 -21.1478 133.844C-18.7773 132.526 -16.4552 130.836 -14.0873 129.077C-12.512 127.907 -11.4313 126.454 -10.2843 124.915L-10.0294 124.578C-9.32077 123.63 -8.53571 122.7 -7.77867 121.8C-6.81518 120.661 -5.8211 119.48 -4.97485 118.259C-2.98159 115.361 -1.66123 111.602 -1.26615 107.671C-0.87871 103.833 -0.707932 99.4841 -2.39787 96.331C-2.54571 96.0532 -2.6961 95.783 -2.84649 95.5128C-3.40492 94.5729 -3.87672 93.584 -4.25605 92.5586C-4.92387 90.5857 -5.88227 88.6052 -6.80498 86.6961C-8.55864 83.0817 -10.3735 79.3424 -10.4576 75.2616C-10.5646 70.309 -7.49063 65.5756 -4.51603 61.0029C-3.19059 58.9637 -1.93652 57.0342 -1.0291 55.1735C-0.463593 54.0755 0.184864 53.0223 0.910633 52.023C1.29552 51.4724 1.69061 50.9014 2.05765 50.3177C3.33212 48.2557 4.94049 45.123 5.22342 41.9063C5.50392 38.7429 5.39865 35.5571 4.9099 32.4192C3.7323 24.0587 -1.23557 20.0339 -8.87216 16.2462C-13.4067 13.998 -18.9736 10.7176 -21.8003 5.24501C-22.1861 4.43072 -22.4794 3.57573 -22.6746 2.69608C-22.841 1.9693 -23.0669 1.25744 -23.3501 0.567725C-26.8956 -7.36455 -34.3589 -13.3826 -44.366 -16.375C-53.3357 -19.059 -63.7226 -19.0335 -72.1493 -16.3062C-74.7391 -15.4676 -77.5021 -14.5908 -80.283 -13.8898C-87.4837 -12.0724 -93.099 -11.9169 -97.9573 -13.403C-102.52 -14.7998 -107.74 -16.1125 -111.869 -15.2509C-117.959 -13.9765 -124.048 -10.3672 -128.572 -5.33305C-129.992 -3.75271 -130.793 -1.74415 -131.567 0.198131C-132.276 1.98238 -133.01 3.82016 -134.221 5.37246C-136.732 8.56627 -140.415 10.0701 -143.976 11.5383C-146.512 12.5783 -149.135 13.6539 -151.283 15.3311C-154.628 17.9438 -154.574 21.5403 -154.536 25.3637C-154.51 27.4895 -154.482 29.6969 -155.102 31.6774C-155.894 34.2136 -159.33 37.2851 -161.51 38.5213C-162.169 38.8773 -162.85 39.1906 -163.549 39.4593C-163.804 39.5689 -164.076 39.6785 -164.339 39.7932C-168.927 41.7916 -172.22 46.3949 -175.121 50.4554L-175.294 50.6975C-180.188 57.544 -179.513 68.0965 -173.79 74.2216C-171.565 76.6023 -168.665 77.9711 -165.861 79.294C-164.12 80.1147 -162.318 80.9661 -160.666 82.0545C-154.312 86.2526 -154.763 94.1721 -155.16 101.171C-155.242 102.596 -155.318 103.942 -155.334 105.219C-155.413 111.031 -152.323 120.306 -143.423 128.924C-136.222 135.885 -125.835 138.32 -114.191 135.776C-108.357 134.517 -102.677 132.624 -97.2537 130.132C-95.7244 129.416 -94.5187 129.419 -93.0098 129.416H-92.4516L-92.4439 129.391Z" stroke="white" stroke-width="0.1" stroke-miterlimit="10"/>
<path d="M-38.6515 145.225C-40.3134 145.225 -41.965 145.184 -43.6091 145.146L-45.9184 145.092C-50.7614 144.998 -55.9612 144.792 -61.1585 143.92C-66.3558 143.048 -71.813 141.611 -78.2975 139.411C-79.0239 139.156 -79.758 138.901 -80.4972 138.646C-86.8466 136.429 -93.4177 134.137 -99.9634 136.296C-100.557 136.492 -101.144 136.752 -101.709 137.002C-102.364 137.307 -103.036 137.573 -103.723 137.797C-104.322 137.978 -104.936 138.129 -105.53 138.274C-106.367 138.463 -107.194 138.697 -108.005 138.975C-110.044 139.724 -112.129 140.341 -114.141 140.938C-115.122 141.228 -116.108 141.521 -117.097 141.83C-119.735 142.676 -122.484 143.123 -125.254 143.155C-125.794 143.155 -126.337 143.155 -126.883 143.155C-130.37 143.173 -133.976 143.186 -137.298 141.855L-137.491 141.776C-138.789 141.266 -140.129 140.721 -141.274 139.862C-141.557 139.648 -141.83 139.431 -142.097 139.217C-142.784 138.635 -143.527 138.123 -144.315 137.688C-146.962 136.311 -149.346 134.481 -151.36 132.279C-157.794 125.216 -158.497 118.482 -159.297 110.682C-159.611 107.651 -159.937 104.516 -160.623 101.136C-161.933 94.6721 -164.191 89.9693 -167.76 86.332C-168.416 85.7104 -169.143 85.1688 -169.926 84.7185C-170.378 84.4356 -170.844 84.1399 -171.29 83.8085C-171.871 83.3752 -172.424 82.9139 -172.96 82.4678C-173.757 81.7758 -174.597 81.1331 -175.473 80.5433C-175.995 80.2069 -176.531 79.8781 -177.066 79.5493C-179.324 78.1652 -181.654 76.7327 -183.278 74.5151C-184.959 72.1492 -186.229 69.5166 -187.035 66.7281C-188.801 60.7152 -187.364 53.2749 -183.28 47.3155C-179.401 41.6518 -173.594 39.3246 -167.969 37.0739C-164.793 35.7994 -163.87 33.5819 -164.78 29.4118C-165.219 27.3982 -165.402 25.8764 -165.035 24.0591C-163.317 15.3698 -157.477 13.5371 -151.829 11.7656C-147.57 10.4299 -143.163 9.04841 -140.236 4.80444C-138.608 2.44158 -137.644 -0.252632 -136.711 -2.86019C-135.6 -5.96478 -134.453 -9.17644 -132.169 -11.9191C-128.601 -16.2064 -122.832 -19.9253 -116.345 -22.1301C-110.06 -24.2636 -102.041 -21.2915 -95.5996 -18.9032C-94.7152 -18.5743 -93.8638 -18.2583 -93.0507 -17.9702C-87.5246 -16.0025 -82.7913 -18.0849 -77.7826 -20.2898C-76.5081 -20.8505 -75.1853 -21.4317 -73.8573 -21.9389C-70.0097 -23.3969 -65.9775 -24.3106 -61.8773 -24.6535C-57.7776 -25.0248 -53.6455 -24.7834 -49.6169 -23.9373C-42.7935 -22.4691 -33.0667 -18.5845 -27.8363 -13.53C-25.5194 -11.287 -24.0741 -8.43215 -22.6773 -5.66401C-21.1479 -2.60529 -19.5396 0.550278 -16.7663 2.80863C-13.3457 5.59461 -9.21132 7.20808 -5.21205 8.77058C0.650493 11.0646 6.69402 13.4173 10.5404 19.4914C11.5803 21.138 11.9346 22.9171 12.1462 25.0786C12.3221 26.8736 12.4071 28.6763 12.4011 30.4798V30.4798C12.3424 40.2448 9.10785 47.1804 3.90803 55.2044L3.65314 55.6123C-1.27649 63.2183 -6.37435 71.0843 -4.75833 80.3675C-4.30207 83.0107 -3.28505 85.552 -2.46429 87.4713C-1.59001 89.4875 -0.170256 91.6133 1.31067 93.864C4.08391 98.0468 6.954 102.372 6.85715 106.68C6.65578 115.713 -0.0606527 125.677 -5.74731 131.466C-8.76562 134.522 -12.1751 137.165 -15.887 139.327C-19.9117 141.682 -23.9849 143.334 -27.9944 144.233C-31.4864 145.036 -35.083 145.225 -38.6515 145.225ZM-94.3889 134.807C-89.6122 134.807 -84.8941 136.454 -80.2908 138.06C-79.5541 138.315 -78.8226 138.57 -78.0961 138.825C-71.6448 141.014 -66.2283 142.439 -61.054 143.308C-55.8797 144.177 -50.7257 144.381 -45.9057 144.473L-43.5938 144.527C-38.473 144.651 -33.1764 144.781 -28.1218 143.647C-23.9205 142.655 -19.897 141.021 -16.1928 138.804C-12.5281 136.67 -9.16233 134.061 -6.18319 131.043C-0.575542 125.336 6.05167 115.53 6.24284 106.683C6.33461 102.569 3.52059 98.3272 0.800886 94.2235C-0.705531 91.9498 -2.13038 89.8011 -3.02251 87.7364C-3.86875 85.7839 -4.90362 83.1968 -5.37008 80.4898C-7.01923 70.9645 -1.8551 62.9965 3.13825 55.2885L3.39314 54.8807C8.53178 46.9459 11.7281 40.0969 11.7868 30.4875C11.7928 28.7051 11.7077 26.9236 11.5319 25.15C11.3305 23.0752 10.9966 21.3776 10.0204 19.8355C6.28363 13.9347 0.589322 11.712 -5.43125 9.36193C-9.4764 7.78414 -13.6566 6.15028 -17.1563 3.30312C-20.0341 0.960657 -21.6603 -2.25864 -23.233 -5.36324C-24.6068 -8.0804 -26.0368 -10.8919 -28.2697 -13.061C-33.4108 -18.0314 -43.005 -21.8574 -49.7444 -23.3077C-53.7136 -24.1407 -57.7847 -24.3778 -61.8238 -24.0112C-65.8664 -23.6731 -69.842 -22.7723 -73.6355 -21.3348C-74.9482 -20.825 -76.2609 -20.2566 -77.5303 -19.6984C-82.4319 -17.5395 -87.4991 -15.3092 -93.2597 -17.361C-94.0754 -17.6516 -94.9293 -17.9702 -95.8086 -18.2965C-102.158 -20.6517 -110.06 -23.583 -116.136 -21.5184C-122.509 -19.3518 -128.185 -15.6991 -131.685 -11.5011C-133.9 -8.84253 -135.029 -5.6844 -136.123 -2.62824C-137.068 0.0150025 -138.044 2.75001 -139.722 5.17914C-142.78 9.59898 -147.279 11.0136 -151.64 12.3824C-157.365 14.1667 -162.774 15.8744 -164.421 24.1992C-164.76 25.9045 -164.581 27.3574 -164.166 29.2971C-163.478 32.4552 -163.363 35.9243 -167.734 37.6703C-173.271 39.8854 -178.993 42.1794 -182.773 47.6876C-186.752 53.4966 -188.159 60.7331 -186.443 66.5701C-185.658 69.2898 -184.42 71.8577 -182.781 74.1659C-181.233 76.2841 -178.957 77.6809 -176.747 79.0344C-176.207 79.3657 -175.669 79.6971 -175.142 80.0361C-174.244 80.6394 -173.384 81.2974 -172.567 82.0064C-172.039 82.4474 -171.491 82.9037 -170.926 83.3268C-170.5 83.6428 -170.044 83.9309 -169.6 84.2087C-168.776 84.6851 -168.011 85.2575 -167.321 85.9139C-163.682 89.6405 -161.365 94.4426 -160.029 101.029C-159.336 104.44 -159.009 107.59 -158.696 110.636C-157.901 118.326 -157.212 124.966 -150.916 131.876C-148.95 134.025 -146.62 135.811 -144.034 137.153C-143.211 137.608 -142.435 138.145 -141.717 138.753C-141.463 138.962 -141.185 139.176 -140.907 139.385C-139.829 140.196 -138.526 140.716 -137.267 141.221L-137.073 141.3C-133.864 142.574 -130.324 142.574 -126.893 142.554H-125.259C-122.553 142.533 -119.866 142.096 -117.294 141.256C-116.299 140.948 -115.313 140.655 -114.329 140.364C-112.326 139.77 -110.251 139.156 -108.23 138.412C-107.394 138.124 -106.543 137.883 -105.681 137.69C-105.094 137.548 -104.49 137.4 -103.896 137.224C-103.235 137.007 -102.586 136.751 -101.954 136.459C-101.366 136.187 -100.764 135.945 -100.152 135.733C-98.293 135.117 -96.3471 134.805 -94.3889 134.807V134.807Z" stroke="white" stroke-width="0.1" stroke-miterlimit="10"/>
<path d="M-36.1739 151.245C-40.4229 151.245 -44.6746 150.672 -48.8013 150.116L-50.8787 149.838C-53.6825 149.474 -56.0046 149.099 -58.347 147.929C-60.7328 146.736 -63.0268 146.193 -65.5656 145.655C-79.47 142.699 -93.0328 140.346 -106.094 143.965C-108.003 144.496 -109.917 145.171 -111.75 145.824C-114.597 146.843 -117.541 147.878 -120.587 148.416C-123.867 148.994 -127.247 149.04 -130.512 149.086C-132.574 149.117 -134.705 149.145 -136.78 149.308C-150.073 150.353 -159.654 137.894 -163.269 125.078C-163.916 122.784 -163.855 120.39 -163.796 118.076L-163.781 117.449C-163.694 113.697 -163.781 108.362 -164.721 104.261C-165.231 102.046 -166.177 99.9275 -167.041 98.1662C-169.067 94.0115 -173.202 91.85 -177.198 89.7548C-180.071 88.2509 -183.043 86.696 -185.251 84.402C-185.76 83.8922 -186.245 83.3824 -186.731 82.8726C-192.382 77.0942 -196.843 72.5291 -195.773 63.3912C-195.082 57.4929 -193.262 49.4077 -188.523 44.3813C-185.396 41.0676 -181.858 37.8662 -177.188 36.918C-176.655 36.8235 -176.114 36.7741 -175.572 36.7702C-175.006 36.7697 -174.441 36.7099 -173.887 36.5917C-169.664 35.5084 -170.449 32.1719 -171.28 28.6365C-171.67 26.9899 -172.045 25.4325 -171.899 24.079C-171.461 19.7458 -170.095 16.9956 -167.332 14.8417C-164.801 12.8714 -161.293 11.1789 -156.906 9.81777C-154.559 9.08877 -152.369 8.40821 -150.323 7.07767C-148.293 5.7872 -146.435 4.24565 -144.791 2.48959C-142.22 -0.370309 -141.333 -3.88273 -140.395 -7.57358C-139.964 -9.41304 -139.422 -11.2245 -138.771 -12.9977C-137.01 -17.5323 -133.744 -21.3862 -129.067 -24.4551C-119.868 -30.4859 -111.194 -27.3992 -102.01 -24.111L-100.626 -23.6165C-100.025 -23.405 -99.4307 -23.1858 -98.8419 -22.9717C-94.2232 -21.2817 -89.862 -19.6861 -84.9273 -21.1415C-82.6332 -21.8246 -80.4921 -23.0634 -78.4326 -24.264C-76.3731 -25.4645 -74.1963 -26.7313 -71.8258 -27.4399C-65.5911 -29.3007 -58.9766 -29.5071 -52.5788 -29.7059L-50.7206 -29.7646C-37.9326 -30.1902 -29.8041 -26.479 -23.5516 -17.3462C-21.0264 -13.5969 -18.7529 -9.68422 -16.746 -5.63385C-15.4715 -3.08492 -13.0704 -1.65242 -10.8834 -0.592065C-8.20704 0.712987 -5.53066 1.71726 -2.95115 2.68841C1.77967 4.47266 6.2505 6.14731 10.5964 9.48131C11.1572 9.91208 11.7281 10.3276 12.3017 10.743C13.4809 11.5694 14.6135 12.4603 15.6943 13.4118C19.7726 17.0975 21.279 23.22 20.0912 31.1166C18.7963 39.7651 14.9296 47.0296 13.7826 49.0687C13.1708 50.1418 12.475 51.243 11.5242 52.6372C10.6576 53.9117 9.71195 55.1862 8.72041 56.5651C5.38896 61.1175 1.61145 66.2791 0.469528 71.5146C-0.39201 75.4706 0.923228 79.4622 2.17985 82.1182C3.77038 85.4802 6.1307 88.9493 9.00589 92.1482C9.97703 93.2264 11.0654 94.5391 11.8097 96.0888C14.5753 101.934 14.3306 110.72 12.6993 116.019C10.4537 123.304 7.54535 128.733 3.54862 133.097L2.81708 133.897C0.0871791 136.902 -2.73703 140.015 -6.34122 141.776C-7.29962 142.245 -8.29879 142.637 -9.26228 143.017C-10.3303 143.438 -11.4314 143.871 -12.4663 144.404C-16.9364 146.709 -21.6206 148.572 -26.4523 149.968C-29.1388 150.739 -31.9139 151.159 -34.7082 151.217C-35.2078 151.237 -35.6921 151.245 -36.1739 151.245ZM-91.7201 141.503C-83.1175 141.503 -74.3466 143.15 -65.4356 145.044C-62.9504 145.571 -60.5162 146.147 -58.0666 147.371C-55.8108 148.497 -53.5372 148.862 -50.7971 149.221C-50.1038 149.31 -49.4105 149.405 -48.7172 149.499C-44.1469 150.113 -39.4238 150.756 -34.7465 150.598C-32.0058 150.541 -29.284 150.131 -26.6485 149.377C-21.8546 147.99 -17.2065 146.141 -12.7696 143.856C-11.7074 143.33 -10.6193 142.858 -9.50954 142.441C-8.55624 142.066 -7.56979 141.676 -6.63434 141.22C-3.13721 139.507 -0.353787 136.443 2.33788 133.482L3.06942 132.679C7.00242 128.379 9.86743 123.023 12.085 115.83C13.6832 110.643 13.9253 102.066 11.226 96.3514C10.5276 94.873 9.47488 93.6062 8.53433 92.5586C5.6209 89.3163 3.22491 85.7963 1.60634 82.3781C-0.254378 78.4477 -0.861024 74.6421 -0.147324 71.377C1.02263 66.0242 4.84094 60.7938 8.21063 56.193C9.20726 54.8293 10.1478 53.5447 11.0144 52.2804C11.9576 50.8989 12.6458 49.8105 13.2473 48.7501C15.5949 44.631 18.4675 37.8101 19.4871 31.0223C20.2925 25.6696 20.2186 18.3439 15.289 13.8731C14.2192 12.9379 13.0994 12.0615 11.9346 11.2477C11.3586 10.8297 10.7799 10.4117 10.2141 9.97325C5.94462 6.69788 1.51713 5.03343 -3.17035 3.26957C-5.76771 2.29333 -8.45429 1.28395 -11.1562 -0.0440423C-13.4272 -1.15028 -15.9328 -2.64905 -17.294 -5.36621C-19.292 -9.38738 -21.5554 -13.2712 -24.069 -16.9919C-30.1865 -25.9284 -38.157 -29.5607 -50.7028 -29.1401L-52.561 -29.0815C-58.918 -28.8826 -65.4917 -28.6787 -71.6499 -26.8409C-73.9439 -26.1553 -76.0697 -24.919 -78.1216 -23.7236C-80.2117 -22.5052 -82.3732 -21.246 -84.7488 -20.5451C-89.8824 -19.0157 -94.3379 -20.6598 -99.056 -22.3854C-99.6448 -22.5995 -100.239 -22.8162 -100.84 -23.0277L-102.227 -23.5222C-111.242 -26.7492 -119.786 -29.7952 -128.715 -23.9326C-133.283 -20.9376 -136.467 -17.1805 -138.182 -12.7734C-138.822 -11.0172 -139.355 -9.22365 -139.778 -7.40281C-140.695 -3.78842 -141.643 -0.0491383 -144.317 2.92291C-145.996 4.72243 -147.896 6.30254 -149.971 7.62569C-152.092 9.00466 -154.319 9.69542 -156.68 10.4295C-161.026 11.7779 -164.467 13.4347 -166.937 15.3591C-169.554 17.3983 -170.849 20.0313 -171.27 24.1682C-171.397 25.4172 -171.043 26.9236 -170.666 28.5193C-169.842 32.0189 -168.907 35.9876 -173.724 37.2213C-174.322 37.3523 -174.932 37.4181 -175.544 37.4176C-176.051 37.4222 -176.557 37.4683 -177.056 37.5552C-181.555 38.4703 -185.006 41.5953 -188.062 44.835C-192.683 49.7366 -194.465 57.6841 -195.146 63.4906C-196.183 72.3328 -191.812 76.8011 -186.278 82.4597C-185.791 82.9695 -185.294 83.4793 -184.794 83.9891C-182.656 86.2041 -179.732 87.7334 -176.893 89.2118C-172.814 91.3504 -168.578 93.545 -166.462 97.896C-165.58 99.7007 -164.612 101.849 -164.094 104.126C-163.146 108.291 -163.052 113.682 -163.139 117.469L-163.154 118.096C-163.213 120.365 -163.271 122.71 -162.644 124.915C-159.099 137.483 -149.726 149.703 -136.808 148.694C-134.713 148.528 -132.569 148.497 -130.5 148.469C-127.257 148.423 -123.903 148.375 -120.671 147.807C-117.678 147.279 -114.76 146.242 -111.936 145.24C-110.083 144.585 -108.168 143.904 -106.239 143.369C-101.506 142.091 -96.622 141.463 -91.7201 141.503Z" stroke="white" stroke-width="0.1" stroke-miterlimit="10"/>
<path d="M-35.5391 159.346C-35.8807 159.346 -36.2248 159.346 -36.5765 159.31C-37.5477 159.236 -38.529 159.167 -39.5129 159.101C-45.6303 158.68 -51.9287 158.247 -57.7479 156.315C-60.042 155.55 -62.2927 154.597 -64.472 153.672C-68.196 152.094 -72.0449 150.46 -76.1334 149.785C-81.2593 148.941 -86.5355 149.255 -91.641 149.56C-93.0863 149.647 -94.529 149.734 -95.9742 149.795C-102.008 150.05 -107.559 151.724 -112.927 153.343C-117.082 154.595 -121.379 155.892 -125.927 156.547C-128.771 156.96 -131.743 156.924 -134.619 156.891C-135.246 156.891 -135.868 156.876 -136.487 156.873C-143.734 156.843 -153.119 154.768 -157.732 149.04C-158.171 148.495 -158.622 147.949 -159.07 147.404C-160.819 145.291 -162.639 143.104 -163.964 140.662C-166.197 136.584 -167.579 132.794 -168.071 129.373C-168.639 125.43 -168.499 121.298 -168.364 117.301C-168.31 115.728 -168.254 114.102 -168.247 112.532C-168.213 107.009 -169.302 102.499 -171.476 99.1324C-173.441 96.0915 -175.664 95.2223 -178.238 94.2129C-179.665 93.692 -181.043 93.0472 -182.357 92.2859C-183.116 91.8034 -183.84 91.2686 -184.524 90.6852C-185.034 90.2621 -185.582 89.8237 -186.132 89.449C-186.96 88.9194 -187.828 88.4574 -188.73 88.0675C-189.48 87.7333 -190.212 87.3589 -190.922 86.9459C-202.03 80.2219 -205.359 63.6258 -202.071 52.1072C-201.395 49.7392 -200.223 47.7459 -198.982 45.6329L-198.875 45.4494C-195.594 39.8596 -190.088 38.5673 -184.259 37.1883L-182.967 36.8824C-177.26 35.5085 -177.214 30.2705 -177.17 25.2032C-177.17 24.1556 -177.15 23.1641 -177.094 22.2057C-176.648 14.8138 -173.222 10.3328 -166.62 8.49498C-165.749 8.25284 -164.882 8.00049 -164.018 7.74815C-161.948 7.14405 -159.807 6.52211 -157.646 6.05056C-153.493 5.14824 -150.705 4.13121 -147.87 1.33504C-144.034 -2.44757 -143.106 -5.74588 -142.576 -11.2771C-142.446 -12.6127 -142.418 -14.0401 -142.388 -15.5491C-142.291 -20.4303 -142.181 -25.9614 -138.309 -29.3133C-129.034 -37.3705 -116.014 -35.1376 -105.709 -32.293L-105.41 -32.2114C-93.9657 -29.0533 -86.4081 -26.9683 -75.57 -33.1367C-71.2369 -35.604 -66.3123 -36.616 -61.2221 -37.5132C-47.152 -40.0009 -34.0811 -37.2583 -25.3689 -30.0193C-21.8004 -27.0524 -19.5879 -22.9894 -17.4442 -19.0589C-15.1094 -14.7793 -12.6981 -10.3544 -8.54847 -7.45112C-5.45662 -5.28963 -0.952664 -3.3295 3.81384 -2.07288C4.90836 -1.81871 6.02686 -1.68199 7.15038 -1.66505C7.8131 -1.63191 8.49876 -1.59878 9.20736 -1.51212C14.7462 -0.826453 20.2009 2.18893 23.8 6.5527C27.5597 11.1102 29.9837 17.2582 30.2845 23.0137L30.3584 24.2881C30.4833 26.4573 30.5546 28.5678 30.0729 30.4846C28.5435 36.5409 25.4339 45.1792 19.2196 51.944C18.1694 53.0885 17.0708 54.2381 16.0054 55.3392C12.1616 59.3385 8.18524 63.4754 5.63886 68.5274C4.98124 69.8299 4.05598 71.7951 3.59972 73.8088C3.18169 75.695 3.59972 77.0433 4.22166 78.746C4.42047 79.2788 4.57851 79.814 4.73144 80.3289C5.07045 81.4606 5.39162 82.5312 6.05944 83.5253C6.62785 84.3741 7.33391 84.9909 8.09859 85.6434C8.75732 86.18 9.36409 86.7774 9.91087 87.4277C11.0732 88.8857 12.6408 90.099 14.2976 91.3836C17.2467 93.6624 20.2952 96.0227 20.9044 99.8817C22.9843 113.032 16.1685 124.507 9.22776 133.997C8.86071 134.506 8.5064 135.016 8.1521 135.506C6.86489 137.341 5.53181 139.237 3.73482 140.751C0.925898 143.124 -2.14811 145.102 -5.13545 147.017C-7.8934 148.801 -10.7431 150.621 -13.3481 152.749C-13.7457 153.073 -14.1357 153.412 -14.5257 153.751C-15.6269 154.704 -16.7662 155.693 -18.0942 156.392C-19.4222 157.09 -20.9184 157.46 -22.3586 157.809C-22.8862 157.936 -23.4113 158.064 -23.9262 158.206C-25.792 158.716 -27.3749 158.798 -29.205 158.879L-30.1685 158.925C-30.9332 158.966 -31.6775 159.048 -32.4039 159.124C-33.4442 159.254 -34.4908 159.328 -35.5391 159.346V159.346ZM-83.5864 148.617C-81.0572 148.595 -78.5304 148.78 -76.0314 149.17C-71.8715 149.856 -67.9844 151.505 -64.2273 153.098C-62.0582 154.018 -59.8176 154.969 -57.5516 155.721C-51.8064 157.63 -45.536 158.061 -39.4695 158.477L-36.5281 158.686C-35.1719 158.752 -33.8125 158.691 -32.4676 158.505C-31.7335 158.426 -30.9714 158.344 -30.1991 158.303L-29.2305 158.257C-27.4462 158.176 -25.8889 158.107 -24.0919 157.605C-23.5821 157.46 -23.0366 157.332 -22.5013 157.202C-21.102 156.863 -19.6516 156.511 -18.3848 155.841C-17.118 155.171 -16.0168 154.21 -14.9412 153.292C-14.5461 152.948 -14.151 152.606 -13.7508 152.272C-11.1204 150.124 -8.25536 148.281 -5.48212 146.499C-2.51771 144.595 0.546098 142.625 3.34227 140.27C5.07555 138.806 6.32708 137.027 7.64997 135.141C8.00682 134.631 8.36367 134.122 8.73072 133.624C15.5975 124.237 22.3394 112.899 20.2952 99.9786C19.7242 96.3642 16.7751 94.0829 13.9229 91.8756C12.3069 90.6266 10.6373 89.3266 9.42657 87.8151C8.90513 87.1969 8.32558 86.6301 7.69585 86.1226C6.87793 85.4778 6.15312 84.723 5.542 83.8796C4.82065 82.8065 4.47146 81.6391 4.13245 80.5124C3.98206 80.0026 3.82403 79.4929 3.63541 78.9678C2.99053 77.2243 2.53428 75.7255 2.98798 73.6788C3.44169 71.632 4.39754 69.5826 5.07046 68.2495C7.66017 63.116 11.6696 58.946 15.5466 54.911C16.6069 53.8073 17.7055 52.6654 18.7506 51.5286C24.868 44.858 27.9522 36.3217 29.4561 30.3368C29.9174 28.5041 29.846 26.4496 29.7237 24.3289L29.7008 23.9058L29.6523 23.0596C29.3567 17.4392 26.9836 11.4212 23.308 6.96308C19.8593 2.78028 14.4225 -0.224907 9.12071 -0.879982C8.43505 -0.964096 7.75958 -0.997232 7.1096 -1.03037C5.94293 -1.0486 4.78159 -1.19216 3.6456 -1.45859C-1.19737 -2.73305 -5.76759 -4.72376 -8.91807 -6.92859C-13.185 -9.91593 -15.6345 -14.4046 -18.0025 -18.748C-20.1181 -22.6274 -22.3051 -26.6369 -25.7767 -29.5248C-34.3487 -36.6618 -47.2336 -39.3382 -61.1253 -36.8862C-66.1568 -35.9966 -71.0253 -34.9999 -75.2693 -32.5836C-86.324 -26.2979 -93.9835 -28.4186 -105.576 -31.6099L-105.874 -31.6914C-125.208 -37.0238 -133.148 -32.9812 -137.899 -28.8621C-141.575 -25.6836 -141.671 -20.5169 -141.771 -15.5465C-141.799 -14.0172 -141.829 -12.5872 -141.959 -11.2261C-142.505 -5.54197 -143.463 -2.1468 -147.437 1.77345C-150.381 4.67669 -153.251 5.7294 -157.518 6.65466C-159.667 7.12111 -161.795 7.74305 -163.855 8.34205C-164.721 8.59694 -165.591 8.85183 -166.465 9.09143C-172.779 10.8502 -176.054 15.1502 -176.482 22.2388C-176.541 23.1819 -176.548 24.1633 -176.559 25.2032C-176.602 30.2628 -176.653 35.9979 -182.834 37.484L-184.129 37.7898C-189.823 39.128 -195.202 40.4025 -198.349 45.7552L-198.456 45.9388C-199.677 48.0161 -200.83 49.9763 -201.485 52.2677C-205.627 66.7814 -199.066 81.2848 -190.611 86.403C-189.921 86.8035 -189.209 87.1669 -188.48 87.4914C-187.545 87.8973 -186.646 88.3798 -185.791 88.9341C-185.22 89.3241 -184.669 89.7702 -184.139 90.2086C-183.479 90.7733 -182.779 91.2912 -182.046 91.7583C-180.753 92.5024 -179.397 93.1318 -177.994 93.6394C-175.429 94.6437 -173.008 95.5919 -170.933 98.801C-168.693 102.265 -167.574 106.889 -167.604 112.537C-167.604 114.118 -167.668 115.749 -167.721 117.324C-167.857 121.293 -167.997 125.399 -167.436 129.286C-166.954 132.633 -165.596 136.362 -163.399 140.364C-162.088 142.752 -160.302 144.916 -158.573 147.009C-158.12 147.557 -157.669 148.102 -157.228 148.65C-152.752 154.207 -143.568 156.221 -136.467 156.251C-135.847 156.251 -135.223 156.251 -134.593 156.269C-131.741 156.302 -128.794 156.338 -125.998 155.933C-121.502 155.28 -117.227 153.993 -113.095 152.749C-107.689 151.12 -102.099 149.435 -95.9895 149.181C-94.5519 149.119 -93.1118 149.033 -91.6716 148.946C-89.0054 148.778 -86.2959 148.617 -83.5788 148.617H-83.5864Z" stroke="white" stroke-width="0.1" stroke-miterlimit="10"/>
<path d="M-30.7472 165.274C-33.1661 165.274 -35.6921 164.793 -38.1391 164.324C-38.5443 164.247 -38.9445 164.168 -39.3396 164.097C-45.8419 162.891 -52.7699 161.405 -59.4073 158.726C-62.6317 157.426 -65.5579 156.325 -68.7262 156.029C-71.0993 155.808 -73.4545 155.423 -75.7307 155.053C-80.3901 154.288 -84.7921 153.575 -89.5178 154.077L-91.3989 154.271C-92.8467 154.416 -94.343 154.566 -95.8009 154.763C-100.203 155.349 -104.669 156.786 -108.984 158.176C-110.908 158.795 -112.899 159.435 -114.847 159.98C-115.9 160.302 -116.935 160.683 -117.946 161.122C-119.254 161.662 -120.607 162.221 -122.024 162.511L-122.149 162.534C-124.66 163.044 -127.247 163.569 -129.89 163.154C-131.694 162.914 -133.51 162.788 -135.33 162.776C-138.536 162.69 -141.852 162.598 -144.796 161.298C-146.384 160.597 -147.998 159.978 -149.558 159.379C-155.166 157.227 -160.462 155.196 -164.232 149.693C-168.848 142.964 -171.076 136.364 -171.456 128.282C-171.499 127.392 -171.568 126.497 -171.637 125.621C-171.744 124.224 -171.856 122.781 -171.856 121.346C-171.856 120.5 -171.833 119.651 -171.807 118.797C-171.726 117.132 -171.742 115.464 -171.856 113.801C-172.124 110.811 -173.113 108.958 -174.257 106.799C-174.903 105.632 -175.481 104.428 -175.99 103.195C-176.566 101.752 -176.87 101.23 -178.266 100.595C-184.835 97.6003 -190.083 94.9213 -194.781 92.1608C-198.625 89.9203 -202.142 85.7732 -204.151 82.6559C-204.799 81.6056 -205.386 80.5188 -205.91 79.4009C-206.289 78.6362 -206.674 77.8282 -207.11 77.0686C-207.365 76.6124 -207.62 76.1663 -207.875 75.7253C-209.274 73.3293 -210.597 71.0659 -211.086 68.127C-212.468 59.8226 -209.692 49.9225 -204.011 42.9053C-202.609 41.1746 -200.753 40.285 -198.974 39.5229C-197.41 38.8962 -195.806 38.375 -194.172 37.9629C-191.164 37.132 -188.054 36.273 -185.725 34.0809C-182.997 31.5142 -182.964 28.1317 -182.921 24.553C-182.921 23.666 -182.906 22.7509 -182.852 21.8588C-182.597 17.6913 -182.294 12.5017 -179.131 9.29004C-176.24 6.31289 -171.163 5.73683 -166.694 5.22705C-165.19 5.05882 -163.771 4.89823 -162.517 4.65864C-162.007 4.55923 -161.454 4.5006 -160.926 4.44452C-159.988 4.34256 -159.022 4.23806 -158.199 3.9118C-149.92 0.638971 -149.41 -8.28228 -148.872 -17.7618C-148.487 -24.5164 -148.09 -31.5005 -144.587 -36.2338C-143.384 -37.8499 -141.253 -39.3537 -139.671 -40.1184C-138.575 -40.6511 -137.348 -40.8423 -136.163 -41.0258L-135.748 -41.0921C-129.121 -42.1576 -121.173 -41.788 -111.472 -39.9604C-110.045 -39.6577 -108.641 -39.2583 -107.269 -38.7649C-106.687 -38.5712 -106.109 -38.3775 -105.53 -38.1991C-93.4993 -34.5031 -80.4564 -35.3111 -70.643 -40.358C-70.016 -40.6792 -69.394 -41.0411 -68.7925 -41.3929C-67.74 -42.0395 -66.64 -42.6053 -65.5018 -43.0854C-61.2196 -44.7702 -55.2908 -44.5969 -50.5294 -44.4567L-49.1887 -44.421C-46.7391 -44.3573 -44.3202 -44.0132 -41.9803 -43.6818C-40.5554 -43.4805 -39.0822 -43.2714 -37.6165 -43.1287L-37.2316 -43.0905C-35.608 -42.935 -34.0735 -42.7871 -32.4753 -42.1627C-27.6324 -40.2764 -23.4062 -37.5516 -19.8989 -35.1353C-15.6448 -32.204 -14.0032 -28.4367 -12.1043 -24.078C-11.8494 -23.5096 -11.5945 -22.9284 -11.3396 -22.3396C-7.36582 -13.4439 1.88934 -10.0436 10.8361 -6.75292C15.1693 -5.15984 19.6554 -3.51323 23.3972 -1.26508C29.4738 2.38499 33.9421 9.66473 36.6771 20.3779C36.7842 20.801 36.8802 21.2258 36.9652 21.6523C38.548 29.628 36.6797 39.8288 32.4255 46.4585C31.5133 47.8241 30.5227 49.1356 29.4586 50.3864C28.8468 51.1333 28.2121 51.9031 27.6284 52.6805C27.139 53.3305 26.6675 54.0059 26.2138 54.661C25.3617 55.947 24.425 57.1749 23.41 58.3365C22.7099 59.1029 22.0072 59.8676 21.302 60.6306C18.2917 63.906 15.1846 67.2935 12.2762 70.7702C10.599 72.7788 9.33732 74.5172 9.58201 77.0457C10.0918 82.1792 14.0681 85.2685 17.9221 88.261C19.9536 89.8515 22.0667 91.493 23.6419 93.42C28.6149 99.5374 28.857 107.74 24.3785 118.494C24.0956 119.174 23.8203 119.858 23.545 120.533C22.6861 122.669 21.7965 124.879 20.6673 126.944C20.2149 127.721 19.679 128.447 19.0691 129.108C18.776 129.449 18.4778 129.793 18.1923 130.17C17.9169 130.544 17.6617 130.932 17.4276 131.333C17.0971 131.909 16.714 132.453 16.2831 132.959C14.0783 135.383 12.0264 138.014 10.0434 140.56C7.43327 143.907 4.73394 147.366 1.65228 150.414C-3.95536 155.961 -11.5665 160.554 -19.7587 163.342C-23.0645 164.444 -26.5066 165.084 -29.9876 165.244C-30.245 165.272 -30.4974 165.274 -30.7472 165.274ZM-86.3138 153.294C-82.6561 153.294 -79.0978 153.876 -75.6287 154.441C-73.3602 154.811 -71.0177 155.206 -68.6676 155.413C-65.4177 155.716 -62.3207 156.883 -59.1728 158.153C-52.5864 160.811 -45.6915 162.287 -39.2249 163.488L-38.0192 163.717C-35.3505 164.227 -32.5824 164.752 -30.0207 164.642C-26.5989 164.483 -23.2154 163.853 -19.9652 162.771C-11.8519 160.011 -4.33005 155.474 1.21642 149.991C4.27514 146.97 6.95406 143.527 9.55396 140.195C11.5447 137.646 13.6042 135.001 15.8218 132.549C16.2276 132.074 16.5877 131.562 16.8974 131.019C17.1427 130.6 17.4107 130.194 17.7003 129.803C17.996 129.416 18.3045 129.059 18.6001 128.712C19.1845 128.086 19.6974 127.396 20.1295 126.656C21.2383 124.616 22.1202 122.432 22.9741 120.311C23.2494 119.626 23.5247 118.94 23.8101 118.257C28.1918 107.735 27.9802 99.7388 23.1678 93.8176C21.6384 91.9416 19.5509 90.318 17.527 88.7504C13.5685 85.6917 9.47495 82.508 8.94987 77.1069C8.67968 74.3362 10.0128 72.4933 11.7843 70.37C14.6952 66.8831 17.8151 63.4879 20.8304 60.2075L22.9358 57.9134C23.9357 56.7725 24.8579 55.5658 25.6963 54.3016C26.1526 53.644 26.6267 52.9609 27.1238 52.3032C27.7177 51.5156 28.3549 50.7382 28.9717 49.9888C30.0249 48.7548 31.0061 47.4612 31.9106 46.1144C36.0858 39.6096 37.9159 29.5999 36.3636 21.7696C36.2821 21.3541 36.1877 20.9412 36.0832 20.5283C33.389 9.98335 29.0176 2.8285 23.0837 -0.732354C19.3928 -2.94992 14.9271 -4.58634 10.6296 -6.16922C1.55543 -9.50322 -7.82719 -12.9519 -11.9055 -22.0873C-12.1604 -22.6786 -12.4153 -23.2598 -12.6702 -23.8308C-14.5309 -28.1028 -16.1367 -31.7936 -20.243 -34.6229C-23.7223 -37.0189 -27.9204 -39.7208 -32.6945 -41.5841C-34.2239 -42.178 -35.7048 -42.3207 -37.2826 -42.4711L-37.6675 -42.5093C-39.1459 -42.6546 -40.6243 -42.8636 -42.0568 -43.0675C-44.3788 -43.3963 -46.7799 -43.7379 -49.1938 -43.7991L-50.5371 -43.8373C-55.2449 -43.9749 -61.0998 -44.1457 -65.2648 -42.5093C-66.3726 -42.0388 -67.4436 -41.4858 -68.4688 -40.8551C-69.078 -40.5008 -69.7075 -40.1337 -70.3473 -39.8049C-80.3136 -34.6815 -93.5298 -33.8608 -105.714 -37.595C-106.297 -37.7734 -106.881 -37.9697 -107.467 -38.1659C-108.813 -38.6486 -110.189 -39.0412 -111.586 -39.341C-121.219 -41.1635 -129.085 -41.5305 -135.648 -40.4778L-136.069 -40.3988C-137.208 -40.2204 -138.386 -40.0368 -139.4 -39.5449C-140.863 -38.8363 -142.954 -37.3783 -144.085 -35.849C-147.475 -31.2609 -147.868 -24.3788 -148.248 -17.7133C-148.775 -8.46835 -149.318 1.09523 -157.969 4.5159C-158.869 4.87275 -159.881 4.98235 -160.86 5.08685C-161.398 5.14548 -161.91 5.20156 -162.389 5.29587C-163.664 5.55076 -165.099 5.70115 -166.615 5.87192C-170.979 6.36387 -175.929 6.91953 -178.7 9.73355C-181.697 12.7923 -181.998 17.8366 -182.24 21.8996C-182.294 22.779 -182.301 23.6838 -182.309 24.5632C-182.345 28.1164 -182.378 31.792 -185.299 34.5397C-187.743 36.8338 -190.927 37.7183 -194.009 38.5696C-195.615 38.9731 -197.192 39.484 -198.729 40.099C-200.455 40.8203 -202.226 41.6767 -203.539 43.2902C-209.111 50.1723 -211.838 59.8786 -210.485 68.0148C-210.013 70.8441 -208.719 73.0592 -207.35 75.4067C-207.095 75.8502 -206.84 76.2989 -206.567 76.7577C-206.129 77.5223 -205.734 78.3406 -205.349 79.1205C-204.837 80.2194 -204.262 81.2875 -203.626 82.3194C-201.655 85.3781 -198.214 89.4386 -194.45 91.6459C-189.77 94.3962 -184.542 97.065 -177.991 100.057C-176.408 100.779 -176.003 101.472 -175.396 102.994C-174.895 104.206 -174.325 105.389 -173.689 106.537C-172.562 108.658 -171.499 110.661 -171.219 113.776C-171.102 115.463 -171.085 117.156 -171.168 118.846C-171.193 119.689 -171.219 120.533 -171.216 121.374C-171.216 122.786 -171.107 124.216 -170.999 125.6C-170.928 126.492 -170.859 127.385 -170.818 128.282C-170.444 136.229 -168.249 142.729 -163.702 149.359C-160.042 154.694 -154.834 156.692 -149.318 158.808C-147.751 159.409 -146.13 160.031 -144.529 160.737C-141.697 161.989 -138.445 162.078 -135.297 162.165C-133.451 162.174 -131.608 162.301 -129.778 162.547C-127.255 162.95 -124.828 162.455 -122.256 161.933L-122.134 161.91C-120.768 161.632 -119.442 161.086 -118.16 160.556C-117.127 160.108 -116.069 159.719 -114.992 159.391C-113.07 158.848 -111.084 158.209 -109.165 157.592C-104.832 156.193 -100.33 154.747 -95.8723 154.153C-94.4067 153.957 -92.9053 153.807 -91.4525 153.659L-89.5739 153.468C-88.4928 153.351 -87.4063 153.291 -86.3189 153.289L-86.3138 153.294Z" stroke="white" stroke-width="0.1" stroke-miterlimit="10"/>
<path d="M-35.8629 173.39C-36.9156 173.39 -37.9504 173.311 -39.0185 173.232L-40.3796 173.135C-44.05 172.908 -48.2965 171.629 -52.0409 170.499L-53.7767 169.99C-55.3657 169.486 -56.924 168.89 -58.4438 168.205C-59.0199 167.95 -59.596 167.711 -60.1746 167.474C-73.0365 162.223 -83.1404 160.571 -93.9606 161.963C-96.7339 162.32 -99.2828 163.059 -101.977 163.842L-102.339 163.946C-105.41 164.838 -109.965 166.049 -114.064 166.271C-115.01 166.324 -115.95 166.368 -116.886 166.411C-121.407 166.62 -125.677 166.816 -130.087 167.869L-131.555 168.223C-134.29 168.891 -136.874 169.518 -139.688 169.816C-148.492 170.741 -155.688 168.835 -163.753 163.444C-167.089 161.214 -170.525 156.136 -172.065 152.483C-173.546 148.979 -174.474 144.918 -174.823 140.417C-175.004 138.102 -174.973 135.732 -174.943 133.443C-174.943 132.553 -174.92 131.659 -174.92 130.779V129.943C-174.92 123.38 -174.92 115.939 -178.705 110.398C-179.212 109.702 -179.771 109.045 -180.377 108.433C-180.93 107.87 -181.448 107.274 -181.929 106.649C-183.624 104.355 -187.282 103.335 -190.522 102.428C-191.94 102.063 -193.334 101.609 -194.694 101.066C-196.224 100.409 -197.735 99.7308 -199.249 99.0528L-201.798 97.9186C-204.452 96.7562 -206.317 95.4334 -207.847 93.6338C-208.632 92.7085 -209.463 91.7909 -210.342 90.83C-213.2 87.6489 -216.169 84.3684 -217.765 80.6037C-218.213 79.5484 -218.743 78.4702 -219.258 77.4303C-220.37 75.1796 -221.519 72.8422 -222.016 70.3901C-222.292 69.0188 -222.258 67.6067 -222.228 66.243C-222.228 65.8352 -222.207 65.4273 -222.207 65.0195C-222.207 62.8147 -222.083 60.9565 -221.532 59.0576C-219.1 50.6334 -215.59 45.25 -209.794 41.0545C-207.829 39.6373 -205.731 38.3628 -203.705 37.1189C-199.92 34.8249 -196.007 32.4315 -192.905 29.0414C-191.63 27.642 -190.825 26.4466 -190.807 24.8051C-190.807 24.2188 -190.807 23.63 -190.807 23.0437C-190.807 22.6155 -190.807 22.1873 -190.807 21.7693C-190.807 20.8772 -190.807 19.985 -190.807 19.0955C-190.807 17.2067 -190.807 15.3154 -190.807 13.4266C-190.848 9.62109 -189.77 6.51649 -187.603 4.19696C-185.368 1.80861 -182.49 0.462775 -179.737 -0.712281C-177.532 -1.65284 -175.261 -1.97145 -173.062 -2.28242C-171.754 -2.46595 -170.4 -2.65711 -169.065 -2.97573C-168.402 -3.11478 -167.728 -3.18736 -167.051 -3.19239C-166.679 -3.20768 -166.307 -3.22043 -165.927 -3.26121C-164.747 -3.39121 -162.868 -4.26804 -161.877 -5.00468C-157.062 -8.55534 -156.407 -13.9565 -156.414 -19.2634V-19.6508C-156.414 -23.882 -156.432 -28.2586 -155.023 -32.3216C-154.702 -33.2494 -154.335 -34.1874 -153.98 -35.0948C-153.78 -35.6046 -153.582 -36.1144 -153.386 -36.6241C-153.292 -36.879 -153.205 -37.1339 -153.131 -37.3684C-152.77 -38.4059 -152.428 -39.3846 -151.528 -40.287C-150.392 -41.3852 -149.147 -42.3664 -147.814 -43.2157C-146.556 -44.0473 -145.207 -44.7315 -143.792 -45.2548C-141.903 -46.0017 -140.089 -46.3177 -138.167 -46.6516C-137.657 -46.7409 -137.124 -46.8326 -136.594 -46.932C-131.081 -47.9822 -125.088 -46.5752 -119.804 -45.3338L-119.695 -45.3084C-119.325 -45.2217 -118.961 -45.1503 -118.599 -45.079C-117.587 -44.9193 -116.599 -44.6315 -115.66 -44.2225C-114.623 -43.6941 -113.535 -43.2739 -112.412 -42.9684C-111.986 -42.8427 -111.571 -42.6816 -111.171 -42.4867C-110.676 -42.2297 -110.144 -42.0533 -109.593 -41.9642C-108.137 -41.8422 -106.673 -41.8653 -105.222 -42.033C-99.9353 -42.6269 -94.4577 -42.5428 -89.1635 -42.4663C-87.8891 -42.4485 -86.5993 -42.4281 -85.3248 -42.4179C-82.0444 -42.3975 -78.5702 -43.1035 -74.4435 -44.6558C-72.3584 -45.4383 -70.8265 -46.6567 -69.3456 -47.8343C-67.0516 -49.6568 -64.8875 -51.3774 -60.9341 -51.5048C-59.4379 -51.5558 -57.9137 -51.645 -56.4429 -51.7342C-54.9722 -51.8234 -53.4224 -51.9126 -51.9084 -51.9611C-42.931 -52.244 -34.9758 -50.9797 -28.3206 -48.1861C-22.1904 -45.6142 -19.226 -41.8979 -15.8028 -37.5953C-14.5793 -36.0659 -13.315 -34.4729 -11.8239 -32.8339C-11.3702 -32.3241 -10.9394 -31.8143 -10.5087 -31.3045C-9.63746 -30.2015 -8.67019 -29.178 -7.61819 -28.2458C-5.85688 -26.77 -4.22556 -25.1285 -2.64778 -23.5379C-1.68428 -22.5694 -0.690192 -21.5676 0.321733 -20.6169C3.12556 -17.9864 6.57935 -16.3806 9.92355 -14.8257C11.951 -13.9261 13.9284 -12.9178 15.8473 -11.8052C16.3163 -11.5223 16.7623 -11.2394 17.2007 -10.9641C18.7581 -9.97764 20.2314 -9.04728 22.138 -8.47122C22.7957 -8.26986 23.4405 -8.08634 24.0727 -7.90536C27.32 -6.975 30.3889 -6.09562 33.231 -3.68688C36.3916 -1.01051 38.4588 1.94625 40.6484 5.07634C41.413 6.16728 42.1981 7.29646 43.0545 8.43838C45.7233 12.0069 46.8091 16.5261 47.5203 20.4719C47.9536 22.8806 47.9459 25.1823 47.9383 27.6089V27.7108C47.9383 28.4041 47.9536 29.1 47.9689 29.7959C48.0224 32.0899 48.081 34.4502 47.4591 36.7137C45.3486 44.3248 41.9661 51.2247 37.6814 56.6692C31.564 64.4511 25.941 69.1972 19.4718 72.0597C17.1447 73.0792 15.8626 74.42 15.6637 76.0182C15.1132 80.4635 22.6402 86.3515 27.6208 90.2488C29.5274 91.7399 31.0312 92.9176 31.7169 93.7128C33.2972 95.5379 34.3041 97.7911 35.2854 99.973L35.5148 100.483C38.4512 107.028 34.6252 116.075 31.5512 123.344C30.8375 125.032 30.1621 126.625 29.637 128.044C29.1721 129.214 28.6226 130.348 27.9929 131.437C27.3857 132.482 26.8533 133.569 26.3998 134.689C25.6912 136.591 25.1254 137.957 23.8254 139.56C22.9553 140.676 22.1567 141.846 21.4345 143.063C20.6692 144.348 19.8176 145.581 18.8856 146.751C18.2152 147.559 17.5754 148.423 16.9535 149.262C15.9861 150.631 14.9276 151.934 13.7852 153.162C13.0205 153.926 12.345 154.778 11.6798 155.593C11.0145 156.409 10.339 157.237 9.58964 158.012C3.99983 163.783 -0.753918 165.501 -7.94955 168.101L-9.19087 168.552C-16.203 171.101 -23.0621 171.942 -30.324 172.839C-31.4277 172.974 -32.534 173.112 -33.6504 173.255C-34.3842 173.348 -35.1232 173.393 -35.8629 173.39ZM-86.7522 160.859C-78.3892 160.859 -69.9981 162.779 -59.9401 166.885C-59.3563 167.125 -58.7777 167.372 -58.1966 167.619C-56.7028 168.295 -55.1709 168.883 -53.6085 169.38C-53.0452 169.546 -52.464 169.722 -51.8701 169.89C-48.1564 171.012 -43.9481 172.281 -40.3464 172.503C-39.8851 172.531 -39.4288 172.567 -38.9802 172.6C-37.196 172.732 -35.5341 172.855 -33.7345 172.625C-32.6164 172.482 -31.5067 172.344 -30.4056 172.21C-23.1768 171.318 -16.3534 170.476 -9.40753 167.955L-8.1662 167.504C-1.05214 164.932 3.64809 163.235 9.13849 157.564C9.87003 156.799 10.5429 155.983 11.1929 155.185C11.8429 154.388 12.5617 153.506 13.334 152.713C14.4574 151.51 15.4988 150.232 16.4514 148.889C17.0758 148.046 17.7258 147.174 18.4013 146.341C19.3115 145.192 20.1427 143.982 20.889 142.721C21.6242 141.481 22.4382 140.289 23.3258 139.153C24.5697 137.623 25.1101 136.303 25.8008 134.457C26.2608 133.316 26.8017 132.208 27.4194 131.144C28.0351 130.08 28.5718 128.973 29.0252 127.83C29.558 126.398 30.2334 124.797 30.9497 123.102C33.9778 115.945 37.7451 107.044 34.9183 100.743L34.6915 100.233C33.7357 98.0944 32.7492 95.882 31.2301 94.1155C30.5852 93.3662 29.0252 92.1478 27.2206 90.7357C22.1227 86.7517 14.4352 80.7337 15.0316 75.9366C15.2585 74.1065 16.6629 72.6077 19.2042 71.4836C25.5765 68.6645 31.1179 63.977 37.1767 56.2792C41.4105 50.8985 44.7547 44.0724 46.8422 36.5429C47.4463 34.3686 47.3903 32.0491 47.3367 29.8061C47.3214 29.1026 47.3036 28.4016 47.3062 27.7057V27.6012C47.3062 25.195 47.3215 22.9188 46.8983 20.5662C46.1642 16.4879 45.1294 12.2567 42.5473 8.79778C41.6858 7.64566 40.893 6.50374 40.1284 5.4179C37.9643 2.32349 35.9175 -0.602676 32.8206 -3.22807C30.0779 -5.5476 27.2129 -6.3709 23.8993 -7.31911C23.2621 -7.50263 22.6249 -7.6887 21.9545 -7.88752C19.9689 -8.49161 18.4599 -9.44236 16.8566 -10.4517C16.4233 -10.727 15.9798 -11.0074 15.5133 -11.2878C13.6144 -12.3884 11.6573 -13.3856 9.65081 -14.2751C6.26328 -15.8478 2.76616 -17.4766 -0.109037 -20.1759C-1.12861 -21.1343 -2.13033 -22.1386 -3.09637 -23.1123C-4.66397 -24.6901 -6.28509 -26.3214 -8.02601 -27.7794C-9.10371 -28.7332 -10.0957 -29.7797 -10.9904 -30.9069C-11.4161 -31.4167 -11.8443 -31.9265 -12.2929 -32.4108C-13.7968 -34.065 -15.0662 -35.6607 -16.2973 -37.2053C-19.6695 -41.4416 -22.5855 -45.107 -28.5678 -47.6126C-35.1339 -50.368 -42.9948 -51.6144 -51.9007 -51.334C-53.4072 -51.2856 -54.9391 -51.1938 -56.4174 -51.1046C-57.8958 -51.0154 -59.4226 -50.9262 -60.9265 -50.8778C-64.6632 -50.7554 -66.7508 -49.0935 -68.9582 -47.3399C-70.4875 -46.1317 -72.0475 -44.8852 -74.2243 -44.0645C-78.4249 -42.4867 -81.9526 -41.7551 -85.33 -41.7883C-86.6044 -41.7883 -87.8789 -41.8189 -89.1712 -41.8367C-94.4475 -41.9157 -99.9047 -41.9973 -105.153 -41.4085C-106.648 -41.2356 -108.157 -41.2126 -109.657 -41.3397C-110.279 -41.4313 -110.882 -41.625 -111.441 -41.9132C-111.81 -42.0933 -112.192 -42.2425 -112.586 -42.3592C-113.745 -42.6756 -114.869 -43.1095 -115.94 -43.6541C-116.836 -44.0433 -117.778 -44.3157 -118.744 -44.4647C-119.113 -44.536 -119.486 -44.6099 -119.863 -44.6992L-119.972 -44.7246C-125.198 -45.9507 -131.119 -47.3424 -136.505 -46.3177C-137.038 -46.2158 -137.563 -46.124 -138.085 -46.0348C-139.974 -45.706 -141.758 -45.395 -143.588 -44.6711C-144.958 -44.1633 -146.265 -43.4996 -147.483 -42.6932C-148.78 -41.8656 -149.992 -40.911 -151.1 -39.8434C-151.898 -39.0431 -152.201 -38.1713 -152.553 -37.162C-152.64 -36.9071 -152.729 -36.6522 -152.826 -36.3973C-153.019 -35.8875 -153.221 -35.3777 -153.422 -34.8679C-153.774 -33.9656 -154.138 -33.0353 -154.457 -32.1176C-155.831 -28.1515 -155.821 -23.8311 -155.813 -19.6508V-19.2761C-155.813 -13.8036 -156.491 -8.22653 -161.53 -4.51274C-162.593 -3.73021 -164.558 -2.79476 -165.881 -2.65202C-166.276 -2.60869 -166.664 -2.59339 -167.051 -2.5781C-167.687 -2.57456 -168.32 -2.50796 -168.942 -2.37928C-170.309 -2.05302 -171.675 -1.8695 -172.998 -1.67323C-175.256 -1.35716 -177.387 -1.05639 -179.515 -0.143871C-182.207 1.0057 -185.019 2.3184 -187.162 4.62008C-189.217 6.81471 -190.239 9.77402 -190.198 13.4164C-190.178 15.3077 -190.183 17.1991 -190.198 19.0929C-190.198 19.9825 -190.198 20.8772 -190.198 21.7642C-190.198 22.1899 -190.198 22.6155 -190.198 23.0387C-190.198 23.63 -190.198 24.2214 -190.198 24.8229C-190.221 26.862 -191.378 28.2945 -192.459 29.4773C-195.622 32.9311 -199.576 35.3398 -203.396 37.667C-205.397 38.8726 -207.482 40.1471 -209.43 41.5592C-215.101 45.6681 -218.552 50.952 -220.933 59.2309C-221.463 61.0483 -221.575 62.8682 -221.583 65.0221C-221.583 65.4324 -221.583 65.8454 -221.603 66.2583C-221.634 67.5863 -221.667 68.9627 -221.405 70.2678C-220.923 72.6485 -219.794 74.94 -218.698 77.1499C-218.188 78.1975 -217.645 79.2808 -217.189 80.3539C-215.634 84.0243 -212.705 87.2615 -209.873 90.3941C-208.991 91.3704 -208.158 92.2931 -207.365 93.226C-205.905 94.949 -204.108 96.2235 -201.543 97.3603C-200.694 97.7342 -199.844 98.1123 -198.994 98.4946C-197.483 99.1701 -195.969 99.8481 -194.447 100.503C-193.112 101.032 -191.745 101.476 -190.353 101.831C-187.025 102.759 -183.252 103.812 -181.432 106.282C-180.965 106.886 -180.463 107.462 -179.928 108.007C-179.299 108.641 -178.72 109.323 -178.195 110.046C-174.293 115.748 -174.298 123.301 -174.3 129.946V130.779C-174.3 131.666 -174.3 132.564 -174.323 133.451C-174.354 135.727 -174.384 138.082 -174.206 140.368C-173.862 144.804 -172.949 148.798 -171.496 152.241C-169.99 155.81 -166.654 160.755 -163.411 162.919C-155.372 168.3 -148.518 170.114 -139.76 169.194C-136.987 168.904 -134.422 168.279 -131.708 167.616L-130.237 167.262C-125.769 166.197 -121.471 165.988 -116.921 165.786C-115.986 165.743 -115.048 165.7 -114.102 165.649C-110.067 165.427 -105.558 164.229 -102.517 163.355L-102.158 163.25C-99.4357 162.46 -96.8664 161.721 -94.0447 161.351C-91.6269 161.032 -89.1911 160.868 -86.7522 160.859Z" stroke="white" stroke-width="0.1" stroke-miterlimit="10"/>
</svg>
