<svg width="261" height="261" viewBox="0 0 261 261" fill="none" xmlns="http://www.w3.org/2000/svg">
<path d="M176.719 27.9062C192.992 27.9062 208.649 32.8699 220.303 44.1162L220.304 44.1172C232.028 55.4452 238.531 72.0274 238.531 92.9482C238.531 110.734 231.417 128.329 221.751 144.146C212.03 160.069 199.227 175.036 186.682 187.8L186.679 187.803C172.383 202.276 157.056 215.693 140.818 227.948L140.817 227.949C139.661 228.821 138.714 229.522 137.985 230.055L137.996 230.069L136.856 230.876L136.709 230.983L136.697 230.992L136.485 231.143L136.42 231.193L134.776 232.426L134.626 232.214C133.332 232.79 131.925 233.094 130.494 233.094C128.391 233.094 126.34 232.44 124.624 231.225L124.603 231.209L124.58 231.193L124.514 231.143L124.303 230.992L124.291 230.984V230.983L123.421 230.354L123.413 230.348L123.406 230.342C105.974 217.452 89.5632 203.234 74.3223 187.814L74.3174 187.81C61.7727 175.035 48.9693 160.07 39.248 144.146V144.146C29.5944 128.32 22.4688 110.735 22.4688 92.9482C22.4689 57.6214 49.5648 27.9062 84.2812 27.9062C102.812 27.9062 119.265 36.4551 130.5 49.7568C141.734 36.4553 158.177 27.9062 176.719 27.9062Z" fill="#34C759" stroke="#F5F6FA" stroke-width="4"/>
<path fill-rule="evenodd" clip-rule="evenodd" d="M184.73 83.555C186.136 84.9615 186.926 86.8688 186.926 88.8575C186.926 90.8462 186.136 92.7535 184.73 94.16L128.515 150.375C127.772 151.118 126.89 151.707 125.919 152.11C124.949 152.512 123.908 152.719 122.857 152.719C121.807 152.719 120.766 152.512 119.795 152.11C118.825 151.707 117.943 151.118 117.2 150.375L89.2699 122.45C88.5536 121.758 87.9822 120.931 87.5891 120.016C87.1961 119.1 86.9892 118.116 86.9805 117.121C86.9719 116.125 87.1616 115.137 87.5387 114.215C87.9158 113.294 88.4727 112.456 89.1769 111.752C89.8811 111.048 90.7185 110.491 91.6402 110.114C92.562 109.737 93.5496 109.547 94.5454 109.556C95.5412 109.564 96.5254 109.771 97.4404 110.164C98.3554 110.557 99.183 111.129 99.8749 111.845L122.855 134.825L174.12 83.555C174.816 82.858 175.643 82.3052 176.554 81.928C177.464 81.5507 178.44 81.3566 179.425 81.3566C180.41 81.3566 181.386 81.5507 182.296 81.928C183.206 82.3052 184.033 82.858 184.73 83.555Z" fill="#F5F6FA"/>
</svg>
