<svg width="149" height="144" viewBox="0 0 149 144" fill="none" xmlns="http://www.w3.org/2000/svg">
<g clip-path="url(#clip0_505_67546)">
<path fill-rule="evenodd" clip-rule="evenodd" d="M36.7596 113.806C46.2025 113.806 49.4711 112.805 57.616 110.161C62.602 108.542 67.7347 105.919 71.9703 102.968C74.8464 100.964 77.2767 98.9102 79.762 96.4716C82.4724 93.8124 84.8396 90.8052 87.1295 87.8033C87.4181 87.4249 87.5664 87.1845 87.8656 86.7763C88.4026 86.0436 88.8279 85.4645 89.3681 84.7522L90.8355 82.694C93.3012 79.1004 95.8506 75.5507 97.647 71.5646C99.5233 67.4009 100.717 63.651 100.717 58.8156C100.717 55.5147 99.2749 51.7696 97.6883 50.0099C92.8601 44.6566 81.0897 43.6343 77.3508 50.5785C76.7249 51.7408 76.0062 53.4566 76.0062 55.1494C71.3125 54.0702 70.8778 53.5554 65.6693 53.5554C59.4441 53.5554 55.817 57.9543 55.817 63.5972C55.817 71.042 62.1291 77.9763 67.9836 81.0781C71.6335 83.0128 73.4706 83.1597 74.838 83.6865C72.7896 86.3446 70.6569 88.975 68.2542 91.3321C65.7689 93.7706 63.3387 95.8246 60.4625 97.8283C59.8689 98.2422 59.2572 98.6494 58.6307 99.0487C56.4255 97.9705 54.3337 96.6007 52.424 95.1587C49.9652 93.3024 46.4334 90.2152 44.6493 88.0081C44.2928 87.5676 44.2335 87.4855 43.8236 87.07C43.4434 86.6848 43.3105 86.4423 42.9382 86.031C38.9579 81.6258 35.0924 75.2811 33.1844 69.6764C31.6671 65.2194 31.2106 58.8653 33.0901 53.9202C33.4322 53.0207 33.7696 52.0925 34.1705 51.3206C35.3996 48.9557 37.0969 46.7878 38.9796 44.909C40.2119 43.6787 41.6317 42.6141 43.0886 41.6321C43.9126 41.0766 44.6508 40.7123 45.5119 40.1985C48.5057 38.4132 53.5737 36.502 57.2713 36.502C59.8779 36.502 61.8738 37.2718 63.802 38.0265L66.586 39.2636C67.4101 39.7052 68.4613 40.4337 69.3844 40.6459C69.8604 39.758 70.1925 39.0524 70.7443 38.1629C71.2432 37.3581 71.8501 36.5396 72.4289 35.8403C84.2513 21.5522 108.11 24.6801 117.646 39.401C118.724 41.0666 119.598 42.7532 120.28 44.6116C121.582 48.1613 122.505 52.518 122.061 56.4486C121.991 57.0659 122.081 57.6972 122.014 58.3155C121.023 67.4547 117.371 77.1124 113.262 85.2225L109.71 91.4402C107.018 95.9045 103.716 99.9063 100.347 103.877C98.811 105.687 95.2178 109.314 93.4887 110.817L90.1958 113.624C86.4893 116.571 82.8399 119.512 78.8167 122.159C71.6584 126.867 65.7181 129.873 57.4116 132.594C54.349 133.598 51.2219 134.481 48.0248 135.126C47.464 135.239 44.4184 135.439 44.5084 135.779C44.8325 137.003 46.9302 138.89 47.868 139.502C60.7819 147.93 87.9345 142.731 101.181 138.333C137.693 124.255 154.791 90.28 147.247 53.0631C146.778 50.7489 146.021 48.119 145.316 46.0431C144.508 43.6693 143.726 41.7053 142.779 39.4611C140.589 34.2704 137.587 29.7298 133.95 25.6998C133.524 25.2273 133.389 24.9811 132.898 24.5066C131.742 23.3892 130.756 22.0121 129.465 21.04L127.002 18.8486C124.639 16.6792 121.873 14.9362 119.193 13.1656L113.368 9.82909C111.225 8.77494 109.353 7.80442 107.106 6.92327C96.1091 2.61105 84.722 0 72.7747 0C69.2122 0 63.0707 0.544057 59.8058 1.06878C53.8851 2.02048 48.7445 3.43158 43.5435 5.74108L36.6462 9.29496C32.9911 11.433 29.7273 13.984 26.4433 16.5992C25.7056 17.1867 25.3021 17.6659 24.5506 18.2382C22.2528 19.989 17.8837 25.0982 16.1764 27.3476C14.1476 30.0203 12.2776 32.7971 10.584 35.6961C8.84911 38.6657 7.41183 41.6546 5.97667 45.0161C3.82022 50.0668 2.12927 55.475 1.13154 60.9553C-0.0134139 67.2441 -0.414306 73.8046 0.507163 80.0856C1.1273 84.3126 2.0493 87.6161 3.43945 91.0587C4.92916 94.7469 7.30962 98.9201 10.0645 101.735L11.7602 103.568C15.6198 107.052 19.8067 109.716 24.7106 111.668C27.9527 112.959 32.2883 113.806 36.7575 113.806H36.7596Z" fill="#212529"/>
</g>
<defs>
<clipPath id="clip0_505_67546">
<rect width="149" height="144" fill="white"/>
</clipPath>
</defs>
</svg>
