<svg width="261" height="97" viewBox="0 0 261 97" fill="none" xmlns="http://www.w3.org/2000/svg">
<g clip-path="url(#clip0_505_67536)">
<path fill-rule="evenodd" clip-rule="evenodd" d="M234.245 33.7868C237.579 33.7868 239.848 34.6253 242.406 36.5318L243.905 37.8451C245.708 39.6438 247.323 42.385 248.133 44.8069C248.291 45.2793 248.449 45.7462 248.576 46.2569C248.836 47.3052 249.065 48.2693 249.058 49.5617C249.056 49.8872 249.111 50.163 249.084 50.3867C249.046 50.6968 249.064 50.9665 249.06 51.2844C249.054 51.7961 248.942 52.4783 248.869 52.9858C248.57 55.0443 248.021 56.8241 246.967 58.543C246.435 59.4095 245.988 59.9422 245.283 60.6465C244.949 60.9807 244.699 61.2194 244.318 61.5176C243.896 61.8473 243.129 62.3916 242.646 62.6582C242.43 62.7774 242.25 62.8831 242.054 62.9848C240.802 63.636 239.368 64.1365 237.984 64.5396C236.828 64.8762 235.778 65.1638 234.533 65.1638C231.242 65.1638 226.859 62.8708 224.732 60.3284C222.199 57.302 221.026 54.5086 220.811 50.4788C220.795 50.1851 220.745 49.9941 220.751 49.6165C220.764 48.7836 220.946 47.1294 221.102 46.3534C221.358 45.0846 221.491 44.6115 221.881 43.4597C221.97 43.1945 222.039 43.0235 222.131 42.7924C222.436 42.0246 222.686 41.6177 223.031 40.9377C223.524 39.9653 224.584 38.5352 225.361 37.7589C226.383 36.7375 227.108 36.0865 228.504 35.3927C230.278 34.5112 232.136 33.7866 234.245 33.7866V33.7868ZM108.109 73.883H119.878V60.116C119.878 59.9284 122.41 57.5576 122.677 57.2909L123.395 56.6308C123.494 56.5436 123.558 56.4686 123.653 56.3731L127.514 52.6589C127.748 53.0992 128.013 53.5558 128.258 53.9813C129.826 56.7025 131.578 59.2119 133.165 61.8127L134.405 63.7293C135.392 65.2148 136.329 66.7562 137.25 68.2863C137.963 69.4703 140.061 72.8668 140.145 73.8829H154.326L153.77 73.0042C153.578 72.678 153.389 72.4055 153.189 72.0937L142.245 54.7482C142.046 54.4225 141.859 54.1616 141.662 53.8393C141.46 53.5082 141.301 53.241 141.087 52.923C140.08 51.4266 139.161 49.8729 138.204 48.3455L137.045 46.5211C136.652 45.9279 136.231 45.3176 135.897 44.6856L143.633 36.3536C144.494 35.4989 145.743 34.0563 146.706 33.0565L151.929 27.3758C152.129 27.159 152.313 27.0191 152.489 26.7885L153.307 25.8848C153.636 25.5386 153.58 25.5334 153.58 25.0676H139.112C138.854 25.0676 136.015 28.3252 135.538 28.8399C135.436 28.9505 135.356 29.0147 135.25 29.1248C135.113 29.2662 135.093 29.3316 134.964 29.4709L132.896 31.7062C132.759 31.8476 132.739 31.9129 132.61 32.0522L132.008 32.7123C130.959 33.8009 129.386 35.6923 128.505 36.5546C128.081 36.9694 127.744 37.4305 127.327 37.8442L123.511 42.0047C123.365 42.1511 123.318 42.168 123.168 42.2932C123.039 42.401 122.976 42.4958 122.847 42.6036L121.864 43.4567C121.444 43.7812 120.237 44.9488 120.108 45.4312H119.878V0.000305176H108.109V73.8829L108.109 73.883ZM178.957 33.3278C181.284 33.3278 183.034 33.4451 185.116 34.3443C186.357 34.8803 187.756 35.6579 188.703 36.6118C189.516 37.4319 190.086 38.0023 190.667 39.009C190.851 39.3298 191.02 39.6438 191.186 39.9811C191.758 41.1384 192.303 43.3064 192.334 44.6856H166.498C166.551 44.5747 166.627 43.619 166.661 43.4148C166.737 42.9634 166.816 42.6135 166.922 42.1843C167.832 38.5178 170.628 35.7493 174.044 34.3849C175.439 33.8275 177.369 33.3278 178.957 33.3278ZM19.6352 75.0876C19.6352 76.8674 18.6877 78.325 18.0602 79.8813C16.6998 83.2557 15.3577 85.857 11.6936 86.9431C11.1919 87.0919 7.67683 87.2484 7.06167 87.2484L1.15105 86.3141C0.999546 86.3063 0.918563 86.2386 0.918563 86.4454V95.9675C0.918563 96.2418 1.60252 96.2176 1.84043 96.251L8.04074 96.9396C8.64614 96.9892 9.74795 96.9985 10.6362 97H11.3983H11.441H11.4826C15.0341 97 18.7814 96.1325 21.3706 93.8581C21.5467 93.7033 21.6944 93.5968 21.8596 93.4289C22.146 93.1381 22.4876 92.9129 22.7441 92.5917C23.6991 91.3955 24.0732 91.1659 24.9932 89.6188C25.8785 88.1299 26.641 86.6055 27.321 84.9464L33.3078 69.9906C34.4643 67.0994 35.553 64.1318 36.7195 61.2386L38.2045 57.4448C39.8719 53.3094 41.4894 49.1456 43.2479 45.0457C43.6013 44.2219 43.933 43.4531 44.2736 42.6287C45.1999 40.3865 46.4332 37.3493 47.2441 35.0994C47.3989 34.6701 47.5743 34.3087 47.7316 33.8656L48.7348 31.3688C48.9012 30.9557 49.0797 30.5304 49.2793 30.1346L50.1599 28.4331C50.6733 27.4004 51.2123 26.2724 51.2123 25.0677H39.3278C38.7067 25.0677 38.5514 27.2239 38.0889 28.4189C37.9335 28.8206 37.8362 29.1633 37.6796 29.5587C37.0871 31.0554 36.5974 32.6033 36.0061 34.0817C35.4183 35.5511 34.7996 36.9717 34.2182 38.4332L27.2488 56.1932C27.1044 56.6062 26.987 56.9403 26.8469 57.3404C26.5265 58.2561 25.8357 60.0894 25.8357 60.9764H25.3764C25.0073 59.3937 24.4299 57.9192 23.877 56.3941C22.8393 53.5318 21.4946 50.5272 20.3405 47.6519C18.9541 44.1977 17.4109 40.0885 16.1262 36.5468C15.3139 34.3074 14.4274 32.0268 13.6708 29.7647C13.365 28.8504 12.2457 25.8261 12.2287 25.0677H-0.000244141C-0.000244141 25.8063 0.40346 26.9377 0.624027 27.6563C1.54532 30.6578 2.63164 33.5772 3.78849 36.4834L5.63452 41.1783C6.04575 42.2063 6.47515 43.2503 6.88938 44.284C7.09751 44.8033 7.31687 45.3194 7.52105 45.8327L10.6788 53.5193C10.8866 54.0416 11.1076 54.5345 11.319 55.0594C11.5245 55.5695 11.7313 56.0763 11.958 56.6008C12.1869 57.1306 12.3569 57.6202 12.5929 58.1462C13.6169 60.428 14.4401 62.8136 15.4456 65.105L18.4491 71.9132C18.6813 72.4348 18.8798 72.9122 19.0939 73.4486C19.232 73.7947 19.6352 74.7167 19.6352 75.0876ZM154.843 48.701C154.843 52.6056 154.764 55.509 156.18 59.1242C157.266 61.8948 158.722 64.6382 160.713 66.8714L162.206 68.4768C162.37 68.6417 162.425 68.685 162.602 68.8267C162.752 68.946 162.837 69.066 162.982 69.1933C163.079 69.2787 163.089 69.2725 163.176 69.343L164.251 70.2198C165.304 71.0038 165.879 71.3806 167.003 72.059C170.36 74.0853 175.653 75.6613 179.588 75.6613C182.636 75.6613 184.802 75.5227 187.677 74.6795C189.394 74.1757 189.787 73.9972 191.309 73.3751C192.167 73.0239 193.824 72.1389 194.539 71.6692C195.078 71.3148 195.54 71.0351 196.05 70.6551C198.021 69.1861 199.582 67.6792 201.003 65.6801C202.162 64.049 203.816 60.6189 203.816 58.5674H193.023L192.384 60.3388C192.243 60.7013 191.624 61.4709 191.343 61.7653C191.215 61.8997 191.2 61.9494 191.084 62.0803C190.716 62.498 189.957 63.1739 189.463 63.5007C184.936 66.4961 177.187 66.4416 172.525 64.0175C171.627 63.5503 170.871 62.9641 170.157 62.2537C169.99 62.088 169.941 61.9871 169.785 61.8226C169.258 61.2699 168.791 60.5543 168.369 59.9104C167.184 58.1026 166.383 55.7665 166.383 53.5769C166.383 53.2297 166.472 52.9106 166.498 52.6017H203.816C203.816 51.9856 203.911 51.6164 203.832 51.0372C203.773 50.607 203.816 49.853 203.818 49.3881L203.415 44.8003C203.105 41.9405 202.055 38.3551 200.774 35.7945C199.616 33.4823 199.256 33.1674 197.788 31.2628L196.568 29.9579C196.424 29.8139 196.314 29.6919 196.167 29.5556C194.693 28.1935 192.4 26.5317 190.685 25.7968C189.757 25.3988 189.162 25.2303 188.236 24.9173C185.85 24.1109 182.299 23.3469 179.76 23.3469C176.984 23.3469 175.84 23.4693 173.238 24.1152C171.695 24.4983 170.069 25.148 168.775 25.7943C166.934 26.7141 165.656 27.5426 164.111 28.7631C163.588 29.1765 161.944 30.624 161.675 30.9761C161.454 31.2658 161.181 31.4577 160.946 31.7387C160.8 31.9129 160.753 31.9724 160.598 32.1372C159.508 33.3013 157.944 35.71 157.177 37.2082C157.077 37.4032 157.041 37.5274 156.949 37.726C156.114 39.5237 155.603 40.9782 155.311 43.031C155.061 44.7943 154.843 46.7181 154.843 48.701H154.843ZM261 0.000368886H249.288C249.181 1.2773 249.199 6.82413 249.228 7.80354C249.238 8.12388 249.289 8.32144 249.288 8.71924C249.274 12.3501 249.402 15.9562 249.402 19.5035C249.402 20.8663 249.46 22.0941 249.46 23.4042C249.46 26.0907 249.517 28.6045 249.517 31.2628C249.245 31.2402 248.947 31.0246 248.747 30.8856C248.295 30.5725 247.95 30.1613 247.605 29.7321C247.416 29.4983 247.255 29.2927 247.061 29.0702C246.629 28.5755 246.389 28.3236 245.832 27.9465C245.294 27.5819 244.228 26.8746 243.68 26.5972C243.39 26.4499 243.198 26.3273 242.896 26.1767C241.739 25.5999 240.865 25.1769 239.62 24.7456C239.025 24.5392 238.472 24.3182 237.863 24.1496C235.185 23.4096 233.991 23.5713 231.49 23.6336C231.14 23.6423 230.773 23.7065 230.451 23.7434C226.265 24.2238 222.013 25.9711 218.727 28.4357L217.409 29.4708C217.287 29.5795 217.252 29.639 217.112 29.7472C216.948 29.8736 216.918 29.9015 216.777 30.0437C216.424 30.4006 215.903 30.8506 215.61 31.2297L214.052 33.1719C213.647 33.7114 213.003 34.7683 212.676 35.3532C211.505 37.4441 211.323 38.16 210.517 40.1945C210.118 41.2005 209.136 44.6437 208.966 45.7009C208.756 47.0089 208.731 48.6479 208.811 50.1353C208.871 51.2519 209.135 53.2722 209.304 54.2896C209.528 55.6433 209.915 56.8062 210.259 58.039C210.788 59.9362 212.103 63.0724 213.057 64.6509C214.181 66.5119 214.18 66.4364 215.447 68.0565C216.007 68.773 216.821 69.5171 217.494 70.1408C217.621 70.2577 217.679 70.2815 217.811 70.3986L218.801 71.1871C219.998 72.045 221.559 73.009 222.894 73.5796C225.115 74.5282 226.629 75.1474 229.193 75.4318C232.714 75.8224 235.336 75.4736 238.585 74.5471L240.282 73.9486C242.892 72.899 245.495 71.3916 247.493 69.3943C248.067 68.8215 248.912 67.9217 249.366 67.1923C249.475 67.0166 249.477 66.9481 249.747 66.9421C249.747 68.5585 249.673 70.5516 249.853 72.1705C249.886 72.4671 249.871 72.7896 249.903 73.0387C249.933 73.2641 249.977 73.7009 249.977 73.883H261V0.000368886H261Z" fill="#212529"/>
<path fill-rule="evenodd" clip-rule="evenodd" d="M62.2635 64.185C65.6203 64.185 66.7821 63.8248 69.6775 62.8733C71.45 62.2909 73.2744 61.3466 74.7801 60.2848C75.8025 59.5637 76.6664 58.8246 77.5499 57.9469C78.5134 56.9899 79.3548 55.9077 80.1688 54.8273C80.2714 54.6912 80.3242 54.6046 80.4305 54.4578C80.6215 54.194 80.7725 53.9857 80.9645 53.7293L81.4863 52.9886C82.3628 51.6953 83.2691 50.4179 83.9076 48.9833C84.5746 47.4848 84.9992 46.1352 84.9992 44.3951C84.9992 43.2071 84.4864 41.8592 83.9224 41.2261C82.2062 39.2996 78.0221 38.9316 76.6929 41.4308C76.4705 41.8491 76.215 42.4666 76.215 43.0758C74.5464 42.6873 74.3921 42.5021 72.5406 42.5021C70.3276 42.5021 69.0384 44.0852 69.0384 46.1159C69.0384 48.7952 71.2823 51.2908 73.3632 52.407C74.6607 53.1033 75.3137 53.1561 75.7997 53.3457C75.0716 54.3023 74.3135 55.2489 73.4594 56.0972C72.5759 56.9749 71.712 57.714 70.6895 58.4351C70.4785 58.584 70.261 58.7306 70.0384 58.8742H70.0384C69.2545 58.4862 68.5108 57.9932 67.832 57.4744C66.958 56.8063 65.7025 55.6952 65.0683 54.9009C64.9417 54.7424 64.9205 54.7128 64.7747 54.5633C64.6396 54.4246 64.5922 54.3374 64.46 54.1893C63.0451 52.6039 61.6711 50.3205 60.9927 48.3035C60.4533 46.6995 60.2911 44.4127 60.9593 42.6331C61.0809 42.3093 61.2008 41.9754 61.3433 41.6975C61.7803 40.8465 62.3836 40.0662 63.0528 39.39C63.4909 38.9474 63.9955 38.5642 64.5133 38.2107C64.8063 38.0107 65.0687 37.8796 65.3749 37.6948C66.4391 37.0522 68.2405 36.3644 69.5551 36.3644C70.4817 36.3644 71.1911 36.6415 71.8766 36.9131L72.8663 37.3584C73.1592 37.5173 73.5328 37.7795 73.861 37.856C74.0302 37.5365 74.1484 37.2825 74.3445 36.9623C74.5218 36.6727 74.7376 36.3781 74.9433 36.1266C79.1458 30.9845 87.6271 32.1102 91.0166 37.408C91.4001 38.0074 91.7104 38.6143 91.9529 39.2833C92.416 40.5608 92.7441 42.1287 92.586 43.5433C92.5612 43.7655 92.5932 43.9926 92.5694 44.215C92.2173 47.504 90.9188 50.9797 89.4582 53.8983L88.1957 56.1361C87.2389 57.7427 86.0649 59.1829 84.8673 60.6119C84.3214 61.2633 83.0442 62.5685 82.4295 63.1093L81.2589 64.1196C79.9413 65.1801 78.6441 66.2388 77.214 67.1912C74.6693 68.8857 72.5577 69.9675 69.6051 70.9468C68.5164 71.3078 67.4048 71.6259 66.2684 71.8579C66.069 71.8986 64.9864 71.9707 65.0184 72.093C65.1336 72.5335 65.8793 73.2127 66.2127 73.4329C70.8032 76.4658 80.4553 74.5948 85.1643 73.012C98.1431 67.9456 104.221 55.7187 101.539 42.3249C101.373 41.4921 101.104 40.5457 100.853 39.7987C100.566 38.9444 100.288 38.2375 99.9512 37.4298C99.1726 35.5616 98.1058 33.9276 96.8129 32.4774C96.6613 32.3074 96.6134 32.2188 96.4389 32.048C96.0281 31.6459 95.6774 31.1502 95.2187 30.8005L94.3431 30.0119C93.5028 29.2312 92.5196 28.6038 91.5674 27.9667L89.4966 26.7659C88.7348 26.3866 88.0695 26.0372 87.2707 25.7201C83.3616 24.1683 79.3136 23.2286 75.0667 23.2286C73.8003 23.2286 71.6172 23.4244 70.4567 23.6133C68.3519 23.9558 66.5247 24.4635 64.6759 25.2947L62.2241 26.5736C60.9248 27.3431 59.7645 28.2611 58.5972 29.2023C58.335 29.4138 58.1916 29.5861 57.9244 29.7921C57.1076 30.4223 55.5545 32.2609 54.9476 33.0704C54.2264 34.0322 53.5618 35.0316 52.9598 36.0748C52.3431 37.1435 51.8321 38.2193 51.322 39.429C50.5554 41.2467 49.9543 43.1929 49.5996 45.1652C49.1925 47.4285 49.05 49.7894 49.3777 52.0499C49.5982 53.5712 49.9258 54.76 50.42 55.999C50.9494 57.3264 51.7958 58.8283 52.775 59.8412L53.3778 60.501C54.7497 61.7545 56.2381 62.7134 57.9814 63.416C59.1338 63.8805 60.675 64.1853 62.2637 64.1853L62.2635 64.185Z" fill="#212529"/>
</g>
<defs>
<clipPath id="clip0_505_67536">
<rect width="261" height="97" fill="white"/>
</clipPath>
</defs>
</svg>
