<svg width="149" height="144" viewBox="0 0 149 144" fill="none" xmlns="http://www.w3.org/2000/svg">
<g clip-path="url(#clip0_505_67542)">
<path fill-rule="evenodd" clip-rule="evenodd" d="M112.24 30.1944C102.797 30.1944 99.5289 31.1952 91.384 33.8392C86.398 35.4578 81.2653 38.0814 77.0297 41.0321C74.1536 43.0359 71.7233 45.0898 69.238 47.5284C66.5276 50.1876 64.1604 53.1948 61.8705 56.1967C61.5819 56.5751 61.4336 56.8155 61.1344 57.2237C60.5974 57.9564 60.1721 58.5355 59.6319 59.2478L58.1645 61.306C55.6988 64.8996 53.1494 68.4493 51.353 72.4354C49.4767 76.5991 48.2825 80.349 48.2825 85.1844C48.2825 88.4853 49.7251 92.2304 51.3117 93.9901C56.1399 99.3434 67.9103 100.366 71.6492 93.4215C72.2751 92.2592 72.9938 90.5434 72.9938 88.8506C77.6875 89.9298 78.1222 90.4446 83.3307 90.4446C89.5559 90.4446 93.183 86.0457 93.183 80.4028C93.183 72.958 86.8709 66.0237 81.0164 62.9219C77.3665 60.9872 75.5294 60.8403 74.162 60.3135C76.2104 57.6554 78.3431 55.025 80.7458 52.6679C83.2311 50.2294 85.6613 48.1754 88.5375 46.1717C89.1311 45.7578 89.7428 45.3506 90.3693 44.9513C92.5745 46.0295 94.6663 47.3993 96.576 48.8413C99.0348 50.6976 102.567 53.7848 104.351 55.9919C104.707 56.4324 104.766 56.5145 105.176 56.93C105.557 57.3152 105.69 57.5577 106.062 57.969C110.042 62.3742 113.908 68.7189 115.816 74.3236C117.333 78.7806 117.789 85.1347 115.91 90.0798C115.568 90.9793 115.23 91.9075 114.83 92.6794C113.6 95.0443 111.903 97.2122 110.02 99.091C108.788 100.321 107.368 101.386 105.911 102.368C105.087 102.923 104.349 103.288 103.488 103.801C100.494 105.587 95.4263 107.498 91.7287 107.498C89.1221 107.498 87.1262 106.728 85.198 105.974L82.414 104.736C81.5899 104.295 80.5387 103.566 79.6156 103.354C79.1396 104.242 78.8075 104.948 78.2557 105.837C77.7568 106.642 77.1499 107.46 76.5711 108.16C64.7487 122.448 40.8896 119.32 31.3545 104.599C30.2757 102.933 29.4025 101.247 28.7204 99.3884C27.4176 95.8387 26.4945 91.482 26.9394 87.5514C27.0093 86.9341 26.9193 86.3028 26.986 85.6845C27.9768 76.5453 31.6293 66.8876 35.7384 58.7775L39.2897 52.5598C41.9816 48.0955 45.284 44.0937 48.6532 40.1228C50.189 38.3129 53.7822 34.6858 55.5113 33.1833L58.8042 30.3763C62.5107 27.4291 66.1601 24.4878 70.1833 21.8412C77.3416 17.1328 83.2819 14.1267 91.5884 11.4059C94.651 10.4024 97.7781 9.51865 100.975 8.87425C101.536 8.76135 104.582 8.56067 104.492 8.22096C104.168 6.99696 102.07 5.10976 101.132 4.49776C88.2181 -3.92964 61.0655 1.26894 47.8186 5.66739C11.3072 19.7454 -5.79131 53.72 1.75308 90.9369C2.22231 93.2511 2.97906 95.881 3.68446 97.9569C4.49155 100.331 5.27426 102.295 6.22115 104.539C8.4115 109.73 11.4126 114.27 15.0498 118.3C15.4761 118.773 15.6106 119.019 16.1021 119.493C17.2576 120.611 18.2442 121.988 19.5348 122.96L21.9979 125.151C24.3614 127.321 27.1274 129.064 29.8065 130.834L35.6319 134.171C37.7751 135.225 39.6467 136.196 41.8937 137.077C52.8909 141.389 64.278 144 76.2253 144C79.7878 144 85.9293 143.456 89.1942 142.931C95.1149 141.98 100.256 140.568 105.457 138.259L112.354 134.705C116.009 132.567 119.273 130.016 122.557 127.401C123.294 126.813 123.698 126.334 124.449 125.762C126.747 124.011 131.116 118.902 132.824 116.652C134.852 113.98 136.722 111.203 138.416 108.304C140.151 105.334 141.588 102.345 143.023 98.9839C145.18 93.9332 146.871 88.525 147.868 83.0447C149.013 76.7559 149.414 70.1954 148.493 63.9144C147.873 59.6874 146.951 56.3839 145.561 52.9413C144.071 49.2531 141.69 45.0799 138.936 42.265L137.24 40.4316C133.38 36.9483 129.193 34.2845 124.289 32.3319C121.047 31.041 116.712 30.1944 112.243 30.1944H112.24Z" fill="#212529"/>
</g>
<defs>
<clipPath id="clip0_505_67542">
<rect width="149" height="144" fill="white" transform="matrix(-1 0 0 -1 149 144)"/>
</clipPath>
</defs>
</svg>
